<svg width="32" height="32" viewBox="0 0 32 32" fill="none" xmlns="http://www.w3.org/2000/svg">
<path fill-rule="evenodd" clip-rule="evenodd" d="M25.8994 20.5643C25.8994 18.9495 25.4683 17.3754 24.6606 15.9889C24.5937 15.8747 24.5728 15.7605 24.5769 15.6708C24.5811 15.5893 24.6104 15.5567 24.623 15.5444L30.3689 9.93728C31.2101 9.11762 31.2101 7.78414 30.3689 6.96448C29.5277 6.14482 28.1634 6.14482 27.3181 6.96448L21.5429 12.5675C21.5429 12.5675 21.4926 12.6083 21.4131 12.6124C21.3211 12.6165 21.2039 12.5961 21.0867 12.5308C20.4004 12.1475 19.6638 11.8498 18.9022 11.6459C18.7724 11.6133 18.672 11.544 18.6134 11.4787C18.559 11.4176 18.5548 11.3768 18.5548 11.3564V7.36003C18.5548 6.20191 17.5923 5.26807 16.4079 5.26807C15.2236 5.26807 14.2611 6.20598 14.2611 7.36003V11.3564C14.2611 11.3768 14.2569 11.4176 14.2025 11.4787C14.1439 11.544 14.0434 11.6133 13.9137 11.6459C13.152 11.8498 12.4197 12.1475 11.7292 12.5268C11.612 12.592 11.4948 12.6124 11.4027 12.6083C11.319 12.6042 11.2856 12.5757 11.273 12.5635L5.52709 6.96448C4.68592 6.14482 3.32163 6.14074 2.48045 6.9604C1.63091 7.78006 1.63091 9.11762 2.47627 9.94136L8.21801 15.5363C8.21801 15.5363 8.25986 15.5852 8.26404 15.6627C8.27241 15.7524 8.2473 15.8666 8.18453 15.9808C7.71163 16.7923 7.36428 17.669 7.15503 18.5865C6.82861 20.0383 6.86627 21.543 7.26384 22.9744C7.66141 24.4057 8.40633 25.727 9.44001 26.8199C10.4695 27.9127 11.7585 28.7446 13.1897 29.2503C14.621 29.756 16.1568 29.915 17.6676 29.7193C19.1784 29.5235 20.618 28.9771 21.8651 28.1207C23.1122 27.2684 24.1291 26.1348 24.8322 24.8176C25.5311 23.5004 25.8994 22.0405 25.8994 20.5603V20.5643ZM16.4247 25.5843C17.1026 25.5843 17.7722 25.4578 18.3958 25.205C18.99 24.9644 19.5341 24.6219 19.9986 24.1855C20.0237 24.157 20.0446 24.1325 20.0739 24.108C20.9193 23.2843 21.4424 22.2037 21.5596 21.0455C21.6768 19.8874 21.3796 18.7252 20.7142 17.7546C20.0488 16.7841 19.0654 16.0705 17.9187 15.732C16.7762 15.3935 15.5458 15.4506 14.4452 15.8992C13.3404 16.3437 12.4281 17.147 11.8673 18.1747C11.3023 19.2023 11.1224 20.3849 11.3567 21.5267C11.5911 22.6685 12.223 23.6962 13.1437 24.4343C14.0686 25.1724 15.2236 25.5761 16.4205 25.5761L16.4247 25.5843Z" fill="url(#paint0_radial_1484_16920)"/>
<path d="M9.466 3L10.3867 4.256L11.6756 5.15314L10.3867 6.05028L9.466 7.30628L8.54531 6.05028L7.25635 5.15314L8.54531 4.256L9.466 3Z" fill="url(#paint1_radial_1484_16920)"/>
<path d="M23.6491 3.49756L24.5112 4.66792L25.7123 5.50797L24.5112 6.34802L23.6491 7.51838L22.787 6.34802L21.5859 5.50797L22.787 4.66792L23.6491 3.49756Z" fill="url(#paint2_radial_1484_16920)"/>
<path d="M3.64907 15.645L4.75389 17.1498L6.29814 18.2263L4.75389 19.3029L3.64907 20.8077L2.54424 19.3029L1 18.2263L2.54424 17.1498L3.64907 15.645Z" fill="url(#paint3_radial_1484_16920)"/>
<defs>
<radialGradient id="paint0_radial_1484_16920" cx="0" cy="0" r="1" gradientUnits="userSpaceOnUse" gradientTransform="translate(19.2286 0.8442) rotate(90.1847) scale(28.2776 33.6079)">
<stop stop-color="#FF9764"/>
<stop offset="1" stop-color="#FF526D"/>
</radialGradient>
<radialGradient id="paint1_radial_1484_16920" cx="0" cy="0" r="1" gradientUnits="userSpaceOnUse" gradientTransform="translate(10.2261 3.77675) rotate(90.1642) scale(4.96067 5.09085)">
<stop stop-color="#FFB700"/>
<stop offset="1" stop-color="#FF526D"/>
</radialGradient>
<radialGradient id="paint2_radial_1484_16920" cx="0" cy="0" r="1" gradientUnits="userSpaceOnUse" gradientTransform="translate(23.5532 3.82579) rotate(90.1642) scale(4.62962 4.75112)">
<stop stop-color="#FFB700"/>
<stop offset="1" stop-color="#FF526D"/>
</radialGradient>
<radialGradient id="paint3_radial_1484_16920" cx="0" cy="0" r="1" gradientUnits="userSpaceOnUse" gradientTransform="translate(2.8045 15.6358) rotate(90.1642) scale(5.95213 6.10834)">
<stop stop-color="#FFB700"/>
<stop offset="1" stop-color="#FF526D"/>
</radialGradient>
</defs>
</svg>
