<svg width="291" height="133" viewBox="0 0 291 133" fill="none" xmlns="http://www.w3.org/2000/svg">
<mask id="mask0_821_13766" style="mask-type:alpha" maskUnits="userSpaceOnUse" x="0" y="0" width="291" height="133">
<path d="M0 64.6731V1.76245H21.7566C27.5045 1.76245 32.1498 3.19353 35.6926 6.06277C39.2354 8.90366 41.0068 12.9135 41.0068 18.1065V20.5648C41.0068 24.3621 40.0292 27.5289 38.0741 30.0652C36.1483 32.6014 33.4728 34.4363 30.0403 35.5557L42.6606 64.6731H26.3872L14.6196 33.7137V64.6731H0ZM19.7574 13.5157H14.6196V29.6118H19.7574C24.1748 29.6118 26.3872 26.9763 26.3872 21.7054V20.5577C26.3872 18.0711 25.8213 16.2857 24.6893 15.1947C23.5574 14.0754 21.911 13.5157 19.7574 13.5157Z" fill="white"/>
<path d="M0 64.6731V1.76245H21.7566C27.5045 1.76245 32.1498 3.19353 35.6926 6.06277C39.2354 8.90366 41.0068 12.9135 41.0068 18.1065V20.5648C41.0068 24.3621 40.0292 27.5289 38.0741 30.0652C36.1483 32.6014 33.4728 34.4363 30.0403 35.5557L42.6606 64.6731H26.3872L14.6196 33.7137V64.6731H0ZM19.7574 13.5157H14.6196V29.6118H19.7574C24.1748 29.6118 26.3872 26.9763 26.3872 21.7054V20.5577C26.3872 18.0711 25.8213 16.2857 24.6893 15.1947C23.5574 14.0754 21.911 13.5157 19.7574 13.5157Z" fill="url(#paint0_linear_821_13766)"/>
<path d="M0 64.6731V1.76245H21.7566C27.5045 1.76245 32.1498 3.19353 35.6926 6.06277C39.2354 8.90366 41.0068 12.9135 41.0068 18.1065V20.5648C41.0068 24.3621 40.0292 27.5289 38.0741 30.0652C36.1483 32.6014 33.4728 34.4363 30.0403 35.5557L42.6606 64.6731H26.3872L14.6196 33.7137V64.6731H0ZM19.7574 13.5157H14.6196V29.6118H19.7574C24.1748 29.6118 26.3872 26.9763 26.3872 21.7054V20.5577C26.3872 18.0711 25.8213 16.2857 24.6893 15.1947C23.5574 14.0754 21.911 13.5157 19.7574 13.5157Z" fill="url(#paint1_radial_821_13766)"/>
<path d="M57 64.6731V1.76245H89.5467V13.9266H71.6196V26.5016H87.8047V38.6658H71.6196V52.509H89.5467V64.6731H57Z" fill="white"/>
<path d="M57 64.6731V1.76245H89.5467V13.9266H71.6196V26.5016H87.8047V38.6658H71.6196V52.509H89.5467V64.6731H57Z" fill="url(#paint2_linear_821_13766)"/>
<path d="M57 64.6731V1.76245H89.5467V13.9266H71.6196V26.5016H87.8047V38.6658H71.6196V52.509H89.5467V64.6731H57Z" fill="url(#paint3_radial_821_13766)"/>
<path d="M104.617 17.638C104.617 14.7191 105.095 12.1475 106.065 9.93708C107.028 7.7267 108.359 5.96265 110.057 4.65201C111.784 3.34137 113.724 2.37079 115.878 1.74735C118.061 1.08849 120.45 0.762604 123.059 0.762604C125.668 0.762604 128.072 1.11683 130.284 1.82528C132.497 2.5054 134.423 3.53266 136.062 4.89997C137.73 6.26729 139.038 8.02425 139.972 10.185C140.935 12.3458 141.42 14.7971 141.42 17.56V22.1862H127.741V17.808C127.741 15.9235 127.33 14.5066 126.506 13.5502C125.683 12.5938 124.536 12.1191 123.066 12.1191C121.736 12.1191 120.648 12.5158 119.796 13.3093C118.943 14.1028 118.524 15.208 118.524 16.6249C118.524 17.6096 118.649 18.4952 118.906 19.2887C119.193 20.0538 119.685 20.8331 120.391 21.6195C121.126 22.3846 121.795 23.008 122.39 23.504C123.015 23.9928 123.993 24.7296 125.323 25.7143L132.548 31.0773C135.635 33.3161 138.031 35.8027 139.729 38.5303C141.427 41.2578 142.28 44.5238 142.28 48.3211C142.28 52.1184 141.398 55.5119 139.649 58.2749C137.921 61.0024 135.643 63.0144 132.805 64.2967C129.976 65.579 126.756 66.2237 123.162 66.2237C117.664 66.2237 113.092 64.736 109.439 61.7605C105.815 58.7566 104 54.6476 104 49.4334V43.9854H117.936V48.8595C117.936 50.6873 118.406 52.1467 119.34 53.2378C120.303 54.3288 121.574 54.8743 123.162 54.8743C124.75 54.8743 126.036 54.4492 126.947 53.6062C127.851 52.7348 128.307 51.5304 128.307 50.0001C128.307 48.9658 128.167 48.0448 127.881 47.2584C127.624 46.4649 127.116 45.6644 126.352 44.8426C125.588 44.0208 124.897 43.369 124.272 42.8731C123.647 42.3559 122.611 41.5483 121.17 40.4573L114.202 35.3351C111.115 33.0964 108.748 30.5956 107.109 27.8397C105.463 25.0555 104.647 21.6549 104.647 17.638H104.617Z" fill="white"/>
<path d="M104.617 17.638C104.617 14.7191 105.095 12.1475 106.065 9.93708C107.028 7.7267 108.359 5.96265 110.057 4.65201C111.784 3.34137 113.724 2.37079 115.878 1.74735C118.061 1.08849 120.45 0.762604 123.059 0.762604C125.668 0.762604 128.072 1.11683 130.284 1.82528C132.497 2.5054 134.423 3.53266 136.062 4.89997C137.73 6.26729 139.038 8.02425 139.972 10.185C140.935 12.3458 141.42 14.7971 141.42 17.56V22.1862H127.741V17.808C127.741 15.9235 127.33 14.5066 126.506 13.5502C125.683 12.5938 124.536 12.1191 123.066 12.1191C121.736 12.1191 120.648 12.5158 119.796 13.3093C118.943 14.1028 118.524 15.208 118.524 16.6249C118.524 17.6096 118.649 18.4952 118.906 19.2887C119.193 20.0538 119.685 20.8331 120.391 21.6195C121.126 22.3846 121.795 23.008 122.39 23.504C123.015 23.9928 123.993 24.7296 125.323 25.7143L132.548 31.0773C135.635 33.3161 138.031 35.8027 139.729 38.5303C141.427 41.2578 142.28 44.5238 142.28 48.3211C142.28 52.1184 141.398 55.5119 139.649 58.2749C137.921 61.0024 135.643 63.0144 132.805 64.2967C129.976 65.579 126.756 66.2237 123.162 66.2237C117.664 66.2237 113.092 64.736 109.439 61.7605C105.815 58.7566 104 54.6476 104 49.4334V43.9854H117.936V48.8595C117.936 50.6873 118.406 52.1467 119.34 53.2378C120.303 54.3288 121.574 54.8743 123.162 54.8743C124.75 54.8743 126.036 54.4492 126.947 53.6062C127.851 52.7348 128.307 51.5304 128.307 50.0001C128.307 48.9658 128.167 48.0448 127.881 47.2584C127.624 46.4649 127.116 45.6644 126.352 44.8426C125.588 44.0208 124.897 43.369 124.272 42.8731C123.647 42.3559 122.611 41.5483 121.17 40.4573L114.202 35.3351C111.115 33.0964 108.748 30.5956 107.109 27.8397C105.463 25.0555 104.647 21.6549 104.647 17.638H104.617Z" fill="url(#paint4_linear_821_13766)"/>
<path d="M104.617 17.638C104.617 14.7191 105.095 12.1475 106.065 9.93708C107.028 7.7267 108.359 5.96265 110.057 4.65201C111.784 3.34137 113.724 2.37079 115.878 1.74735C118.061 1.08849 120.45 0.762604 123.059 0.762604C125.668 0.762604 128.072 1.11683 130.284 1.82528C132.497 2.5054 134.423 3.53266 136.062 4.89997C137.73 6.26729 139.038 8.02425 139.972 10.185C140.935 12.3458 141.42 14.7971 141.42 17.56V22.1862H127.741V17.808C127.741 15.9235 127.33 14.5066 126.506 13.5502C125.683 12.5938 124.536 12.1191 123.066 12.1191C121.736 12.1191 120.648 12.5158 119.796 13.3093C118.943 14.1028 118.524 15.208 118.524 16.6249C118.524 17.6096 118.649 18.4952 118.906 19.2887C119.193 20.0538 119.685 20.8331 120.391 21.6195C121.126 22.3846 121.795 23.008 122.39 23.504C123.015 23.9928 123.993 24.7296 125.323 25.7143L132.548 31.0773C135.635 33.3161 138.031 35.8027 139.729 38.5303C141.427 41.2578 142.28 44.5238 142.28 48.3211C142.28 52.1184 141.398 55.5119 139.649 58.2749C137.921 61.0024 135.643 63.0144 132.805 64.2967C129.976 65.579 126.756 66.2237 123.162 66.2237C117.664 66.2237 113.092 64.736 109.439 61.7605C105.815 58.7566 104 54.6476 104 49.4334V43.9854H117.936V48.8595C117.936 50.6873 118.406 52.1467 119.34 53.2378C120.303 54.3288 121.574 54.8743 123.162 54.8743C124.75 54.8743 126.036 54.4492 126.947 53.6062C127.851 52.7348 128.307 51.5304 128.307 50.0001C128.307 48.9658 128.167 48.0448 127.881 47.2584C127.624 46.4649 127.116 45.6644 126.352 44.8426C125.588 44.0208 124.897 43.369 124.272 42.8731C123.647 42.3559 122.611 41.5483 121.17 40.4573L114.202 35.3351C111.115 33.0964 108.748 30.5956 107.109 27.8397C105.463 25.0555 104.647 21.6549 104.647 17.638H104.617Z" fill="url(#paint5_radial_821_13766)"/>
<path d="M183.872 64.673V38.5027H170.825V64.673H156V1.76231H170.825V26.2536H183.872V1.76231H198.661V64.673H183.872Z" fill="white"/>
<path d="M183.872 64.673V38.5027H170.825V64.673H156V1.76231H170.825V26.2536H183.872V1.76231H198.661V64.673H183.872Z" fill="url(#paint6_linear_821_13766)"/>
<path d="M183.872 64.673V38.5027H170.825V64.673H156V1.76231H170.825V26.2536H183.872V1.76231H198.661V64.673H183.872Z" fill="url(#paint7_radial_821_13766)"/>
<path d="M83.6657 131.58V107.4H71.2292V131.58H57.0947V73.4653H71.2292V96.0933H83.6657V73.4653H97.7634V131.587H83.6657V131.58Z" fill="url(#paint8_linear_821_13766)"/>
<path d="M83.6657 131.58V107.4H71.2292V131.58H57.0947V73.4653H71.2292V96.0933H83.6657V73.4653H97.7634V131.587H83.6657V131.58Z" fill="url(#paint9_linear_821_13766)"/>
<path d="M83.6657 131.58V107.4H71.2292V131.58H57.0947V73.4653H71.2292V96.0933H83.6657V73.4653H97.7634V131.587H83.6657V131.58Z" fill="url(#paint10_linear_821_13766)"/>
<path d="M109.077 73.4653H122.741V113.762C122.741 116.539 123.212 118.53 124.152 119.742C125.123 120.925 126.534 121.52 128.393 121.52C130.253 121.52 131.613 120.918 132.554 119.706C133.524 118.495 134.009 116.518 134.009 113.769V73.4724H147.673V113.394C147.673 119.749 145.983 124.566 142.609 127.846C139.235 131.126 134.494 132.763 128.393 132.763C122.293 132.763 117.545 131.119 114.141 127.846C110.768 124.566 109.077 119.749 109.077 113.394V73.4724V73.4653Z" fill="white"/>
<path d="M109.077 73.4653H122.741V113.762C122.741 116.539 123.212 118.53 124.152 119.742C125.123 120.925 126.534 121.52 128.393 121.52C130.253 121.52 131.613 120.918 132.554 119.706C133.524 118.495 134.009 116.518 134.009 113.769V73.4724H147.673V113.394C147.673 119.749 145.983 124.566 142.609 127.846C139.235 131.126 134.494 132.763 128.393 132.763C122.293 132.763 117.545 131.119 114.141 127.846C110.768 124.566 109.077 119.749 109.077 113.394V73.4724V73.4653Z" fill="url(#paint11_linear_821_13766)"/>
<path d="M160.771 131.58V73.4653H179.772C185.057 73.4653 189.268 74.7264 192.414 77.2485C195.553 79.7706 197.126 83.3624 197.126 88.0311V88.8246C197.126 94.2513 194.641 98.0416 189.665 100.217C192.568 101.329 194.847 103.029 196.493 105.324C198.14 107.592 198.963 110.354 198.963 113.613V115.165C198.963 120.386 197.383 124.439 194.215 127.308C191.047 130.156 186.821 131.587 181.536 131.587H160.771V131.58ZM178.478 84.3188H174.039V95.9375H178.478C180.419 95.9375 181.852 95.4699 182.8 94.5347C183.77 93.5996 184.255 92.126 184.255 90.1069V89.3488C184.255 87.5848 183.77 86.3096 182.8 85.5303C181.859 84.7226 180.419 84.3188 178.478 84.3188ZM179.537 106.791H174.039V120.712H179.537C183.381 120.712 185.306 118.445 185.306 113.904V113.146C185.306 110.9 184.821 109.285 183.851 108.3C182.881 107.294 181.44 106.784 179.529 106.784L179.537 106.791Z" fill="white"/>
<path d="M160.771 131.58V73.4653H179.772C185.057 73.4653 189.268 74.7264 192.414 77.2485C195.553 79.7706 197.126 83.3624 197.126 88.0311V88.8246C197.126 94.2513 194.641 98.0416 189.665 100.217C192.568 101.329 194.847 103.029 196.493 105.324C198.14 107.592 198.963 110.354 198.963 113.613V115.165C198.963 120.386 197.383 124.439 194.215 127.308C191.047 130.156 186.821 131.587 181.536 131.587H160.771V131.58ZM178.478 84.3188H174.039V95.9375H178.478C180.419 95.9375 181.852 95.4699 182.8 94.5347C183.77 93.5996 184.255 92.126 184.255 90.1069V89.3488C184.255 87.5848 183.77 86.3096 182.8 85.5303C181.859 84.7226 180.419 84.3188 178.478 84.3188ZM179.537 106.791H174.039V120.712H179.537C183.381 120.712 185.306 118.445 185.306 113.904V113.146C185.306 110.9 184.821 109.285 183.851 108.3C182.881 107.294 181.44 106.784 179.529 106.784L179.537 106.791Z" fill="url(#paint12_linear_821_13766)"/>
<path d="M252.635 132.755C239.14 132.755 229.585 129.127 222.962 122.695C216.501 116.354 212.701 106.535 212.701 92.0327V10.015C212.701 4.90706 216.957 0.762604 222.212 0.762604C227.468 0.762604 231.724 4.90706 231.724 10.015V92.9678C231.724 100.208 232.87 107.016 236.597 111.848L236.648 111.912L236.7 111.976C240.676 116.885 246.38 119.004 252.642 119.004" fill="url(#paint13_linear_821_13766)"/>
<path d="M250.431 118.996C256.693 118.996 262.397 116.885 266.373 111.969L266.425 111.905L266.476 111.841C270.203 107.009 271.349 100.201 271.349 92.9608V10.015C271.349 4.90706 275.605 0.762604 280.861 0.762604C286.116 0.762604 290.372 4.90706 290.372 10.015V92.0327C290.372 106.535 286.572 116.354 280.111 122.695C273.496 129.127 263.933 132.755 250.438 132.755" fill="url(#paint14_linear_821_13766)"/>
<path fill-rule="evenodd" clip-rule="evenodd" d="M43.7723 110.34C43.7723 107.534 43.0152 104.8 41.5966 102.391C41.479 102.193 41.4422 101.994 41.4496 101.838C41.4569 101.697 41.5084 101.64 41.5304 101.619L51.6223 91.8776C53.0997 90.4536 53.0997 88.137 51.6223 86.713C50.1449 85.289 47.7487 85.289 46.264 86.713L36.1207 96.4471C36.1207 96.4471 36.0325 96.518 35.8928 96.5251C35.7311 96.5321 35.5253 96.4967 35.3195 96.3834C34.1141 95.7174 32.8204 95.2002 31.4827 94.846C31.2548 94.7893 31.0784 94.6689 30.9755 94.5556C30.88 94.4493 30.8726 94.3784 30.8726 94.343V87.4002C30.8726 85.3882 29.1821 83.7658 27.102 83.7658C25.0219 83.7658 23.3313 85.3952 23.3313 87.4002V94.343C23.3313 94.3784 23.324 94.4493 23.2284 94.5556C23.1255 94.6689 22.9491 94.7893 22.7213 94.846C21.3835 95.2002 20.0972 95.7174 18.8845 96.3763C18.6786 96.4896 18.4728 96.5251 18.3111 96.518C18.1641 96.5109 18.1053 96.4613 18.0833 96.44L7.99145 86.713C6.51406 85.289 4.11789 85.2819 2.6405 86.7059C1.14841 88.1299 1.14841 90.4536 2.63315 91.8847L12.7176 101.605C12.7176 101.605 12.7911 101.69 12.7985 101.824C12.8132 101.98 12.7691 102.179 12.6588 102.377C11.8283 103.787 11.2182 105.31 10.8507 106.904C10.2774 109.426 10.3435 112.04 11.0418 114.527C11.7401 117.014 13.0484 119.309 14.8639 121.208C16.672 123.106 18.9359 124.551 21.4497 125.43C23.9634 126.308 26.661 126.585 29.3144 126.245C31.9678 125.905 34.4963 124.955 36.6867 123.468C38.877 121.987 40.6631 120.017 41.8979 117.729C43.1254 115.441 43.7723 112.905 43.7723 110.333V110.34ZM27.1314 119.061C28.3221 119.061 29.4981 118.841 30.5933 118.402C31.6371 117.984 32.5926 117.389 33.4085 116.631C33.4526 116.581 33.4893 116.539 33.5408 116.496C35.0255 115.065 35.9443 113.188 36.1501 111.176C36.3559 109.164 35.834 107.145 34.6653 105.459C33.4967 103.773 31.7694 102.533 29.7554 101.945C27.7488 101.357 25.5878 101.456 23.6547 102.235C21.7143 103.007 20.1119 104.403 19.127 106.188C18.1347 107.974 17.8187 110.028 18.2303 112.012C18.6419 113.996 19.7518 115.781 21.3688 117.063C22.9932 118.345 25.0219 119.047 27.124 119.047L27.1314 119.061Z" fill="url(#paint15_radial_821_13766)"/>
<path d="M14.9083 79.8262L16.5253 82.0082L18.7892 83.5668L16.5253 85.1254L14.9083 87.3074L13.2912 85.1254L11.0273 83.5668L13.2912 82.0082L14.9083 79.8262Z" fill="url(#paint16_radial_821_13766)"/>
<path d="M39.818 80.6913L41.3321 82.7246L43.4416 84.184L41.3321 85.6434L39.818 87.6767L38.3038 85.6434L36.1943 84.184L38.3038 82.7246L39.818 80.6913Z" fill="url(#paint17_radial_821_13766)"/>
<path d="M4.69174 101.795L6.6322 104.409L9.34443 106.279L6.6322 108.15L4.69174 110.764L2.75129 108.15L0.0390625 106.279L2.75129 104.409L4.69174 101.795Z" fill="url(#paint18_radial_821_13766)"/>
</mask>
<g mask="url(#mask0_821_13766)">
<rect x="-22" y="-9.2374" width="353" height="168" fill="white"/>
</g>
<defs>
<linearGradient id="paint0_linear_821_13766" x1="12.907" y1="0.239276" x2="32.3099" y2="110.79" gradientUnits="userSpaceOnUse">
<stop stop-color="#0BC3D1"/>
<stop offset="1" stop-color="#4783B5"/>
</linearGradient>
<radialGradient id="paint1_radial_821_13766" cx="0" cy="0" r="1" gradientUnits="userSpaceOnUse" gradientTransform="translate(98.4818 -13.4784) rotate(90.4565) scale(76.3219 223.358)">
<stop stop-color="#FF9764"/>
<stop offset="1" stop-color="#FF526D"/>
</radialGradient>
<linearGradient id="paint2_linear_821_13766" x1="65.4086" y1="-8.41803" x2="84.8115" y2="102.133" gradientUnits="userSpaceOnUse">
<stop stop-color="#0BC3D1"/>
<stop offset="1" stop-color="#4783B5"/>
</linearGradient>
<radialGradient id="paint3_radial_821_13766" cx="0" cy="0" r="1" gradientUnits="userSpaceOnUse" gradientTransform="translate(101.642 -13.4784) rotate(90.4565) scale(76.3219 223.358)">
<stop stop-color="#FF9764"/>
<stop offset="1" stop-color="#FF526D"/>
</radialGradient>
<linearGradient id="paint4_linear_821_13766" x1="113.364" y1="-15.9782" x2="132.767" y2="94.5658" gradientUnits="userSpaceOnUse">
<stop stop-color="#0BC3D1"/>
<stop offset="1" stop-color="#4783B5"/>
</linearGradient>
<radialGradient id="paint5_radial_821_13766" cx="0" cy="0" r="1" gradientUnits="userSpaceOnUse" gradientTransform="translate(103.839 -13.1605) rotate(90.4565) scale(76.3219 223.358)">
<stop stop-color="#FF9764"/>
<stop offset="1" stop-color="#FF526D"/>
</radialGradient>
<linearGradient id="paint6_linear_821_13766" x1="166.254" y1="-25.421" x2="185.656" y2="85.1299" gradientUnits="userSpaceOnUse">
<stop stop-color="#0BC3D1"/>
<stop offset="1" stop-color="#4783B5"/>
</linearGradient>
<radialGradient id="paint7_radial_821_13766" cx="0" cy="0" r="1" gradientUnits="userSpaceOnUse" gradientTransform="translate(104.873 -13.4289) rotate(90.4565) scale(76.3219 223.358)">
<stop stop-color="#FF9764"/>
<stop offset="1" stop-color="#FF526D"/>
</radialGradient>
<linearGradient id="paint8_linear_821_13766" x1="57.0947" y1="102.519" x2="97.7561" y2="102.519" gradientUnits="userSpaceOnUse">
<stop stop-color="#0BC3D1"/>
<stop offset="1" stop-color="#4783B5"/>
</linearGradient>
<linearGradient id="paint9_linear_821_13766" x1="67.1572" y1="48.1664" x2="85.1433" y2="150.644" gradientUnits="userSpaceOnUse">
<stop stop-color="#0BC3D1"/>
<stop offset="1" stop-color="#4783B5"/>
</linearGradient>
<linearGradient id="paint10_linear_821_13766" x1="82.5831" y1="167.143" x2="82.1406" y2="225.588" gradientUnits="userSpaceOnUse">
<stop stop-color="#0BC3D1"/>
<stop offset="1" stop-color="#4783B5"/>
</linearGradient>
<linearGradient id="paint11_linear_821_13766" x1="122.579" y1="63.1502" x2="139.975" y2="165.479" gradientUnits="userSpaceOnUse">
<stop stop-color="#0BC3D1"/>
<stop offset="1" stop-color="#4783B5"/>
</linearGradient>
<linearGradient id="paint12_linear_821_13766" x1="169.121" y1="55.2368" x2="186.517" y2="157.565" gradientUnits="userSpaceOnUse">
<stop stop-color="#0BC3D1"/>
<stop offset="1" stop-color="#4783B5"/>
</linearGradient>
<linearGradient id="paint13_linear_821_13766" x1="189.166" y1="17.723" x2="296.516" y2="160.548" gradientUnits="userSpaceOnUse">
<stop stop-color="#0BC3D1"/>
<stop offset="1" stop-color="#4783B5"/>
</linearGradient>
<linearGradient id="paint14_linear_821_13766" x1="313.892" y1="17.723" x2="206.542" y2="160.548" gradientUnits="userSpaceOnUse">
<stop stop-color="#0BC3D1"/>
<stop offset="1" stop-color="#4783B5"/>
</linearGradient>
<radialGradient id="paint15_radial_821_13766" cx="0" cy="0" r="1" gradientUnits="userSpaceOnUse" gradientTransform="translate(32.0561 76.0803) rotate(90.1867) scale(49.1265 59.0271)">
<stop stop-color="#FF9764"/>
<stop offset="1" stop-color="#FF526D"/>
</radialGradient>
<radialGradient id="paint16_radial_821_13766" cx="0" cy="0" r="1" gradientUnits="userSpaceOnUse" gradientTransform="translate(16.2432 81.1756) rotate(90.166) scale(8.61813 8.9413)">
<stop stop-color="#FFB700"/>
<stop offset="1" stop-color="#FF526D"/>
</radialGradient>
<radialGradient id="paint17_radial_821_13766" cx="0" cy="0" r="1" gradientUnits="userSpaceOnUse" gradientTransform="translate(39.6495 81.2616) rotate(90.166) scale(8.043 8.34461)">
<stop stop-color="#FFB700"/>
<stop offset="1" stop-color="#FF526D"/>
</radialGradient>
<radialGradient id="paint18_radial_821_13766" cx="0" cy="0" r="1" gradientUnits="userSpaceOnUse" gradientTransform="translate(3.2084 101.779) rotate(90.166) scale(10.3406 10.7284)">
<stop stop-color="#FFB700"/>
<stop offset="1" stop-color="#FF526D"/>
</radialGradient>
</defs>
</svg>
