<svg width="117" height="54" viewBox="0 0 117 54" fill="none" xmlns="http://www.w3.org/2000/svg">
<path d="M0 26.1381V1H8.69361C10.9904 1 12.8466 1.57184 14.2622 2.71834C15.6779 3.85352 16.3857 5.45579 16.3857 7.53082V8.51313C16.3857 10.0305 15.9951 11.2959 15.2138 12.3093C14.4443 13.3228 13.3752 14.056 12.0036 14.5033L17.0465 26.1381H10.5439L5.84175 13.7672V26.1381H0ZM7.89474 5.69642H5.84175V12.1282H7.89474C9.65989 12.1282 10.5439 11.0751 10.5439 8.9689V8.5103C10.5439 7.51667 10.3178 6.80329 9.86548 6.36733C9.41318 5.92006 8.75529 5.69642 7.89474 5.69642Z" fill="white"/>
<path d="M0 26.1381V1H8.69361C10.9904 1 12.8466 1.57184 14.2622 2.71834C15.6779 3.85352 16.3857 5.45579 16.3857 7.53082V8.51313C16.3857 10.0305 15.9951 11.2959 15.2138 12.3093C14.4443 13.3228 13.3752 14.056 12.0036 14.5033L17.0465 26.1381H10.5439L5.84175 13.7672V26.1381H0ZM7.89474 5.69642H5.84175V12.1282H7.89474C9.65989 12.1282 10.5439 11.0751 10.5439 8.9689V8.5103C10.5439 7.51667 10.3178 6.80329 9.86548 6.36733C9.41318 5.92006 8.75529 5.69642 7.89474 5.69642Z" fill="url(#paint0_linear_821_12172)"/>
<path d="M0 26.1381V1H8.69361C10.9904 1 12.8466 1.57184 14.2622 2.71834C15.6779 3.85352 16.3857 5.45579 16.3857 7.53082V8.51313C16.3857 10.0305 15.9951 11.2959 15.2138 12.3093C14.4443 13.3228 13.3752 14.056 12.0036 14.5033L17.0465 26.1381H10.5439L5.84175 13.7672V26.1381H0ZM7.89474 5.69642H5.84175V12.1282H7.89474C9.65989 12.1282 10.5439 11.0751 10.5439 8.9689V8.5103C10.5439 7.51667 10.3178 6.80329 9.86548 6.36733C9.41318 5.92006 8.75529 5.69642 7.89474 5.69642Z" fill="url(#paint1_radial_821_12172)"/>
<path d="M23 26.1381V1H36.0052V5.86061H28.8418V10.8854H35.3091V15.746H28.8418V21.2775H36.0052V26.1381H23Z" fill="white"/>
<path d="M23 26.1381V1H36.0052V5.86061H28.8418V10.8854H35.3091V15.746H28.8418V21.2775H36.0052V26.1381H23Z" fill="url(#paint2_linear_821_12172)"/>
<path d="M23 26.1381V1H36.0052V5.86061H28.8418V10.8854H35.3091V15.746H28.8418V21.2775H36.0052V26.1381H23Z" fill="url(#paint3_radial_821_12172)"/>
<path d="M42.2467 6.74314C42.2467 5.57682 42.4376 4.54921 42.8253 3.66598C43.2101 2.78275 43.7417 2.07786 44.4201 1.55415C45.1103 1.03044 45.8857 0.642608 46.7462 0.393491C47.6185 0.13022 48.5731 0 49.6157 0C50.6584 0 51.6188 0.141544 52.5028 0.424631C53.3869 0.696395 54.1564 1.10687 54.8113 1.65323C55.478 2.19959 56.0008 2.90164 56.3738 3.76506C56.7586 4.62848 56.9524 5.60796 56.9524 6.712V8.56056H51.4866V6.81108C51.4866 6.05807 51.3221 5.49189 50.9932 5.10973C50.6642 4.72756 50.2061 4.53789 49.6187 4.53789C49.0871 4.53789 48.6524 4.69642 48.3117 5.01348C47.971 5.33053 47.8036 5.77215 47.8036 6.33832C47.8036 6.73182 47.8535 7.08568 47.9563 7.40273C48.0708 7.70847 48.2676 8.01986 48.5496 8.33409C48.8433 8.63982 49.1106 8.88894 49.3485 9.0871C49.5981 9.28243 49.9887 9.57684 50.5203 9.97033L53.4074 12.1133C54.641 13.0079 55.5985 14.0015 56.2769 15.0914C56.9554 16.1813 57.2961 17.4863 57.2961 19.0036C57.2961 20.521 56.9436 21.877 56.2446 22.981C55.5544 24.0709 54.6439 24.8749 53.5102 25.3873C52.3795 25.8997 51.093 26.1573 49.6568 26.1573C47.4599 26.1573 45.6331 25.5628 44.1734 24.3738C42.7254 23.1735 42 21.5316 42 19.4481V17.2712H47.5686V19.2188C47.5686 19.9492 47.7566 20.5323 48.1296 20.9683C48.5143 21.4042 49.0224 21.6222 49.6568 21.6222C50.2912 21.6222 50.8052 21.4524 51.1694 21.1155C51.5307 20.7673 51.7128 20.286 51.7128 19.6746C51.7128 19.2613 51.657 18.8932 51.5424 18.579C51.4396 18.262 51.237 17.9421 50.9315 17.6137C50.6261 17.2853 50.35 17.0249 50.1003 16.8267C49.8507 16.6201 49.4366 16.2973 48.8609 15.8614L46.0766 13.8147C44.843 12.9201 43.8973 11.9208 43.2424 10.8196C42.5845 9.70706 42.2585 8.34824 42.2585 6.74314H42.2467Z" fill="white"/>
<path d="M42.2467 6.74314C42.2467 5.57682 42.4376 4.54921 42.8253 3.66598C43.2101 2.78275 43.7417 2.07786 44.4201 1.55415C45.1103 1.03044 45.8857 0.642608 46.7462 0.393491C47.6185 0.13022 48.5731 0 49.6157 0C50.6584 0 51.6188 0.141544 52.5028 0.424631C53.3869 0.696395 54.1564 1.10687 54.8113 1.65323C55.478 2.19959 56.0008 2.90164 56.3738 3.76506C56.7586 4.62848 56.9524 5.60796 56.9524 6.712V8.56056H51.4866V6.81108C51.4866 6.05807 51.3221 5.49189 50.9932 5.10973C50.6642 4.72756 50.2061 4.53789 49.6187 4.53789C49.0871 4.53789 48.6524 4.69642 48.3117 5.01348C47.971 5.33053 47.8036 5.77215 47.8036 6.33832C47.8036 6.73182 47.8535 7.08568 47.9563 7.40273C48.0708 7.70847 48.2676 8.01986 48.5496 8.33409C48.8433 8.63982 49.1106 8.88894 49.3485 9.0871C49.5981 9.28243 49.9887 9.57684 50.5203 9.97033L53.4074 12.1133C54.641 13.0079 55.5985 14.0015 56.2769 15.0914C56.9554 16.1813 57.2961 17.4863 57.2961 19.0036C57.2961 20.521 56.9436 21.877 56.2446 22.981C55.5544 24.0709 54.6439 24.8749 53.5102 25.3873C52.3795 25.8997 51.093 26.1573 49.6568 26.1573C47.4599 26.1573 45.6331 25.5628 44.1734 24.3738C42.7254 23.1735 42 21.5316 42 19.4481V17.2712H47.5686V19.2188C47.5686 19.9492 47.7566 20.5323 48.1296 20.9683C48.5143 21.4042 49.0224 21.6222 49.6568 21.6222C50.2912 21.6222 50.8052 21.4524 51.1694 21.1155C51.5307 20.7673 51.7128 20.286 51.7128 19.6746C51.7128 19.2613 51.657 18.8932 51.5424 18.579C51.4396 18.262 51.237 17.9421 50.9315 17.6137C50.6261 17.2853 50.35 17.0249 50.1003 16.8267C49.8507 16.6201 49.4366 16.2973 48.8609 15.8614L46.0766 13.8147C44.843 12.9201 43.8973 11.9208 43.2424 10.8196C42.5845 9.70706 42.2585 8.34824 42.2585 6.74314H42.2467Z" fill="url(#paint4_linear_821_12172)"/>
<path d="M42.2467 6.74314C42.2467 5.57682 42.4376 4.54921 42.8253 3.66598C43.2101 2.78275 43.7417 2.07786 44.4201 1.55415C45.1103 1.03044 45.8857 0.642608 46.7462 0.393491C47.6185 0.13022 48.5731 0 49.6157 0C50.6584 0 51.6188 0.141544 52.5028 0.424631C53.3869 0.696395 54.1564 1.10687 54.8113 1.65323C55.478 2.19959 56.0008 2.90164 56.3738 3.76506C56.7586 4.62848 56.9524 5.60796 56.9524 6.712V8.56056H51.4866V6.81108C51.4866 6.05807 51.3221 5.49189 50.9932 5.10973C50.6642 4.72756 50.2061 4.53789 49.6187 4.53789C49.0871 4.53789 48.6524 4.69642 48.3117 5.01348C47.971 5.33053 47.8036 5.77215 47.8036 6.33832C47.8036 6.73182 47.8535 7.08568 47.9563 7.40273C48.0708 7.70847 48.2676 8.01986 48.5496 8.33409C48.8433 8.63982 49.1106 8.88894 49.3485 9.0871C49.5981 9.28243 49.9887 9.57684 50.5203 9.97033L53.4074 12.1133C54.641 13.0079 55.5985 14.0015 56.2769 15.0914C56.9554 16.1813 57.2961 17.4863 57.2961 19.0036C57.2961 20.521 56.9436 21.877 56.2446 22.981C55.5544 24.0709 54.6439 24.8749 53.5102 25.3873C52.3795 25.8997 51.093 26.1573 49.6568 26.1573C47.4599 26.1573 45.6331 25.5628 44.1734 24.3738C42.7254 23.1735 42 21.5316 42 19.4481V17.2712H47.5686V19.2188C47.5686 19.9492 47.7566 20.5323 48.1296 20.9683C48.5143 21.4042 49.0224 21.6222 49.6568 21.6222C50.2912 21.6222 50.8052 21.4524 51.1694 21.1155C51.5307 20.7673 51.7128 20.286 51.7128 19.6746C51.7128 19.2613 51.657 18.8932 51.5424 18.579C51.4396 18.262 51.237 17.9421 50.9315 17.6137C50.6261 17.2853 50.35 17.0249 50.1003 16.8267C49.8507 16.6201 49.4366 16.2973 48.8609 15.8614L46.0766 13.8147C44.843 12.9201 43.8973 11.9208 43.2424 10.8196C42.5845 9.70706 42.2585 8.34824 42.2585 6.74314H42.2467Z" fill="url(#paint5_radial_821_12172)"/>
<path d="M74.1372 26.1381V15.6809H68.924V26.1381H63V1H68.924V10.7863H74.1372V1H80.0465V26.1381H74.1372Z" fill="white"/>
<path d="M74.1372 26.1381V15.6809H68.924V26.1381H63V1H68.924V10.7863H74.1372V1H80.0465V26.1381H74.1372Z" fill="url(#paint6_linear_821_12172)"/>
<path d="M74.1372 26.1381V15.6809H68.924V26.1381H63V1H68.924V10.7863H74.1372V1H80.0465V26.1381H74.1372Z" fill="url(#paint7_radial_821_12172)"/>
<path d="M33.4318 52.6943V43.0325H28.4624V52.6943H22.8145V29.4727H28.4624V38.5145H33.4318V29.4727H39.065V52.6971H33.4318V52.6943Z" fill="url(#paint8_linear_821_12172)"/>
<path d="M33.4318 52.6943V43.0325H28.4624V52.6943H22.8145V29.4727H28.4624V38.5145H33.4318V29.4727H39.065V52.6971H33.4318V52.6943Z" fill="url(#paint9_linear_821_12172)"/>
<path d="M33.4318 52.6943V43.0325H28.4624V52.6943H22.8145V29.4727H28.4624V38.5145H33.4318V29.4727H39.065V52.6971H33.4318V52.6943Z" fill="url(#paint10_linear_821_12172)"/>
<path d="M43.5859 29.4727H49.0459V45.5747C49.0459 46.6844 49.2338 47.4798 49.6098 47.9639C49.9975 48.4367 50.5614 48.6745 51.3045 48.6745C52.0475 48.6745 52.5909 48.4338 52.9668 47.9498C53.3545 47.4657 53.5483 46.6759 53.5483 45.5775V29.4755H59.0083V45.4275C59.0083 47.9667 58.3328 49.8917 56.9847 51.2024C55.6366 52.5131 53.7422 53.1671 51.3045 53.1671C48.8667 53.1671 46.9694 52.5103 45.6096 51.2024C44.2615 49.8917 43.5859 47.9667 43.5859 45.4275V29.4755V29.4727Z" fill="white"/>
<path d="M43.5859 29.4727H49.0459V45.5747C49.0459 46.6844 49.2338 47.4798 49.6098 47.9639C49.9975 48.4367 50.5614 48.6745 51.3045 48.6745C52.0475 48.6745 52.5909 48.4338 52.9668 47.9498C53.3545 47.4657 53.5483 46.6759 53.5483 45.5775V29.4755H59.0083V45.4275C59.0083 47.9667 58.3328 49.8917 56.9847 51.2024C55.6366 52.5131 53.7422 53.1671 51.3045 53.1671C48.8667 53.1671 46.9694 52.5103 45.6096 51.2024C44.2615 49.8917 43.5859 47.9667 43.5859 45.4275V29.4755V29.4727Z" fill="url(#paint11_linear_821_12172)"/>
<path d="M64.2422 52.6943V29.4727H71.8344C73.9461 29.4727 75.6291 29.9766 76.8861 30.9843C78.1402 31.9921 78.7687 33.4274 78.7687 35.2929V35.61C78.7687 37.7784 77.776 39.293 75.7876 40.162C76.9478 40.6065 77.8583 41.2859 78.5162 42.2031C79.174 43.109 79.503 44.213 79.503 45.5152V46.1352C79.503 48.2215 78.8715 49.8408 77.6057 50.9873C76.3398 52.1253 74.651 52.6971 72.5393 52.6971H64.2422V52.6943ZM71.3175 33.8096H69.5435V38.4522H71.3175C72.0929 38.4522 72.6656 38.2653 73.0445 37.8917C73.4322 37.518 73.626 36.9292 73.626 36.1224V35.8195C73.626 35.1146 73.4322 34.605 73.0445 34.2936C72.6685 33.9709 72.0929 33.8096 71.3175 33.8096ZM71.7404 42.7891H69.5435V48.3517H71.7404C73.2765 48.3517 74.046 47.4459 74.046 45.6313V45.3284C74.046 44.431 73.8522 43.7855 73.4645 43.3921C73.0768 42.9901 72.5011 42.7862 71.7375 42.7862L71.7404 42.7891Z" fill="white"/>
<path d="M64.2422 52.6943V29.4727H71.8344C73.9461 29.4727 75.6291 29.9766 76.8861 30.9843C78.1402 31.9921 78.7687 33.4274 78.7687 35.2929V35.61C78.7687 37.7784 77.776 39.293 75.7876 40.162C76.9478 40.6065 77.8583 41.2859 78.5162 42.2031C79.174 43.109 79.503 44.213 79.503 45.5152V46.1352C79.503 48.2215 78.8715 49.8408 77.6057 50.9873C76.3398 52.1253 74.651 52.6971 72.5393 52.6971H64.2422V52.6943ZM71.3175 33.8096H69.5435V38.4522H71.3175C72.0929 38.4522 72.6656 38.2653 73.0445 37.8917C73.4322 37.518 73.626 36.9292 73.626 36.1224V35.8195C73.626 35.1146 73.4322 34.605 73.0445 34.2936C72.6685 33.9709 72.0929 33.8096 71.3175 33.8096ZM71.7404 42.7891H69.5435V48.3517H71.7404C73.2765 48.3517 74.046 47.4459 74.046 45.6313V45.3284C74.046 44.431 73.8522 43.7855 73.4645 43.3921C73.0768 42.9901 72.5011 42.7862 71.7375 42.7862L71.7404 42.7891Z" fill="url(#paint12_linear_821_12172)"/>
<path d="M100.949 53.1639C95.5567 53.1639 91.7386 51.7145 89.0923 49.144C86.5106 46.6104 84.9922 42.6868 84.9922 36.892V4.11899C84.9922 2.07794 86.6927 0.421875 88.7927 0.421875C90.8927 0.421875 92.5932 2.07794 92.5932 4.11899V37.2657C92.5932 40.1588 93.0514 42.8793 94.5405 44.81L94.561 44.8354L94.5816 44.8609C96.1705 46.8227 98.4497 47.6691 100.952 47.6691" fill="url(#paint13_linear_821_12172)"/>
<path d="M100.068 47.6663C102.571 47.6663 104.85 46.8227 106.439 44.8581L106.459 44.8326L106.48 44.8071C107.969 42.8765 108.427 40.156 108.427 37.2629V4.11899C108.427 2.07794 110.128 0.421875 112.228 0.421875C114.328 0.421875 116.028 2.07794 116.028 4.11899V36.892C116.028 42.6868 114.51 46.6104 111.928 49.144C109.285 51.7145 105.464 53.1639 100.071 53.1639" fill="url(#paint14_linear_821_12172)"/>
<path fill-rule="evenodd" clip-rule="evenodd" d="M17.4906 44.2075C17.4906 43.0864 17.1881 41.9937 16.6212 41.0312C16.5742 40.952 16.5595 40.8727 16.5625 40.8104C16.5654 40.7538 16.586 40.7312 16.5948 40.7227L20.6273 36.8302C21.2177 36.2612 21.2177 35.3355 20.6273 34.7665C20.037 34.1975 19.0795 34.1975 18.4862 34.7665L14.4331 38.6561C14.4331 38.6561 14.3979 38.6844 14.3421 38.6873C14.2775 38.6901 14.1952 38.6759 14.113 38.6307C13.6313 38.3645 13.1144 38.1579 12.5799 38.0164C12.4888 37.9937 12.4183 37.9456 12.3772 37.9003C12.339 37.8578 12.3361 37.8295 12.3361 37.8154V35.0411C12.3361 34.2371 11.6606 33.5889 10.8294 33.5889C9.99821 33.5889 9.32269 34.24 9.32269 35.0411V37.8154C9.32269 37.8295 9.31976 37.8578 9.28157 37.9003C9.24046 37.9456 9.16997 37.9937 9.07892 38.0164C8.54438 38.1579 8.0304 38.3646 7.54579 38.6278C7.46355 38.6731 7.38131 38.6873 7.3167 38.6844C7.25796 38.6816 7.23446 38.6618 7.22565 38.6533L3.19311 34.7665C2.60277 34.1975 1.6453 34.1947 1.05495 34.7637C0.458735 35.3327 0.458735 36.2612 1.05202 36.833L5.08162 40.717C5.08162 40.717 5.11099 40.751 5.11393 40.8048C5.1198 40.867 5.10218 40.9463 5.05812 41.0256C4.72624 41.5889 4.48247 42.1976 4.33562 42.8345C4.10653 43.8423 4.13296 44.8869 4.41198 45.8805C4.691 46.8742 5.21379 47.7914 5.93923 48.55C6.66174 49.3087 7.56635 49.8862 8.57081 50.2372C9.57528 50.5883 10.6532 50.6987 11.7134 50.5628C12.7737 50.4269 13.784 50.0476 14.6593 49.4531C15.5345 48.8614 16.2482 48.0744 16.7416 47.1601C17.2321 46.2457 17.4906 45.2322 17.4906 44.2046V44.2075ZM10.8411 47.6923C11.3169 47.6923 11.7869 47.6045 12.2245 47.429C12.6415 47.262 13.0233 47.0242 13.3494 46.7213C13.367 46.7015 13.3817 46.6845 13.4022 46.6675C13.9955 46.0957 14.3626 45.3455 14.4449 44.5415C14.5271 43.7375 14.3186 42.9307 13.8516 42.257C13.3846 41.5833 12.6944 41.0878 11.8897 40.8529C11.0878 40.6179 10.2244 40.6576 9.45192 40.9689C8.67655 41.2775 8.03627 41.8352 7.64271 42.5486C7.24621 43.262 7.11992 44.0829 7.28439 44.8756C7.44887 45.6682 7.89236 46.3816 8.53851 46.894C9.18759 47.4064 9.99821 47.6866 10.8382 47.6866L10.8411 47.6923Z" fill="url(#paint15_radial_821_12172)"/>
<path d="M5.957 32.0146L6.60315 32.8866L7.50775 33.5094L6.60315 34.1321L5.957 35.0041L5.31086 34.1321L4.40625 33.5094L5.31086 32.8866L5.957 32.0146Z" fill="url(#paint16_radial_821_12172)"/>
<path d="M15.9108 32.3604L16.5159 33.1728L17.3588 33.756L16.5159 34.3391L15.9108 35.1516L15.3058 34.3391L14.4629 33.756L15.3058 33.1728L15.9108 32.3604Z" fill="url(#paint17_radial_821_12172)"/>
<path d="M1.87477 40.793L2.65014 41.8376L3.73391 42.5849L2.65014 43.3323L1.87477 44.3769L1.09939 43.3323L0.015625 42.5849L1.09939 41.8376L1.87477 40.793Z" fill="url(#paint18_radial_821_12172)"/>
<path d="M108.532 32.2909L98.7164 25.9639C97.245 25.0071 97.8471 22.3687 100.038 20.0955C102.232 17.794 104.864 17.0382 105.936 18.3828L113.111 27.4614C114.183 28.8089 114.183 30.8302 113.131 31.9512C112.036 33.0949 109.977 33.2449 108.532 32.2909Z" fill="url(#paint19_radial_821_12172)"/>
<path d="M109.383 31.396L99.9993 24.6161C98.616 23.6026 98.616 21.5701 100.008 20.1037C101.4 18.6373 103.477 18.4618 104.622 19.7526L112.305 28.3075C113.439 29.5814 113.827 31.1979 113.148 31.9141C112.467 32.6416 110.764 32.4095 109.383 31.3988V31.396Z" fill="url(#paint20_radial_821_12172)"/>
<path d="M110.265 30.454L101.334 23.1844C100 22.0973 99.3806 20.7328 99.9827 20.1157C100.558 19.4929 102.027 19.9657 103.266 21.1575L111.49 29.1518C112.703 30.3436 113.464 31.5524 113.185 31.8383C112.917 32.1526 111.587 31.5241 110.265 30.454Z" fill="url(#paint21_radial_821_12172)"/>
<path d="M95.7291 23.5126C94.7393 24.0646 94.4133 27.4277 94.4133 27.4277C90.416 24.0392 91.6848 19.9485 91.7758 19.8664C92.4543 19.1644 96.7159 22.9861 95.7291 23.5126ZM102.81 16.0872C103.277 15.0993 106.752 14.4708 106.752 14.4708C102.895 10.9266 98.7924 12.526 98.7014 12.6081C98.0229 13.3101 102.346 17.0752 102.81 16.0872Z" fill="url(#paint22_radial_821_12172)"/>
<path opacity="0.25" d="M92.5448 20.4977C92.8062 20.2373 93.5522 20.6053 94.3717 21.2026C93.3496 20.2684 92.1395 19.5239 91.8018 19.8693C91.7107 19.9514 90.4537 24.0703 94.4392 27.4305L94.448 27.3541C91.3289 24.1382 92.4685 20.5855 92.5478 20.5006L92.5448 20.4977Z" fill="url(#paint23_radial_821_12172)"/>
<path d="M95.7733 24.3166C95.7733 24.3166 85.6787 14.2217 89.3706 10.8473C93.0624 7.47288 103.565 16.141 103.565 16.141C103.565 16.141 102.608 22.284 95.7733 24.3166Z" fill="url(#paint24_radial_821_12172)"/>
<path d="M101.936 16.1123C101.093 20.8908 96.8606 22.4251 95.5918 22.8017C96.4993 23.7896 97.1631 24.4379 97.1631 24.4379C103.348 23.0847 103.733 17.5362 103.733 17.5362C103.733 17.5362 103.04 16.9248 101.936 16.1123Z" fill="url(#paint25_radial_821_12172)"/>
<path d="M92.287 10.0918C92.1519 11.0345 91.6702 12.0338 90.8978 12.8576C90.2781 13.5143 89.5468 13.9729 88.8066 14.2503C88.8771 14.4796 88.9564 14.7259 89.0504 14.9722C90.0931 14.7939 91.1651 14.2249 92.0139 13.3303C92.895 12.4131 93.3737 11.3232 93.4618 10.2956C93.0242 10.1965 92.6512 10.1314 92.287 10.0918Z" fill="url(#paint26_radial_821_12172)"/>
<path opacity="0.5" d="M95.9181 13.7291C94.3849 13.5677 93.0104 14.6293 92.843 16.107C92.6756 17.5847 93.777 18.9096 95.3101 19.071C96.8432 19.2323 98.2178 18.1707 98.3852 16.693C98.5526 15.2153 97.4512 13.8905 95.9181 13.7291Z" fill="url(#paint27_radial_821_12172)"/>
<path d="M95.711 13.6158C94.1779 13.4545 92.8034 14.516 92.636 15.9938C92.4685 17.4715 93.5699 18.7963 95.1031 18.9577C96.6362 19.119 98.0107 18.0575 98.1781 16.5797C98.3455 15.102 97.2442 13.7772 95.711 13.6158Z" fill="url(#paint28_radial_821_12172)"/>
<path d="M96.9382 14.6656C97.8663 15.4865 97.9368 16.8963 97.0821 17.8163C96.2304 18.7109 94.7678 18.7788 93.8132 17.955C92.8851 17.1341 92.8146 15.7243 93.6693 14.8043C94.5504 13.8871 96.0131 13.8191 96.9382 14.6656Z" fill="url(#paint29_radial_821_12172)"/>
<path d="M93.4154 15.7219C93.0923 16.7778 93.715 17.879 94.8075 18.1904C95.9001 18.5018 97.0456 17.9017 97.3686 16.8486C97.6917 15.7955 97.0691 14.6915 95.9765 14.3801C94.8839 14.0687 93.7385 14.6688 93.4154 15.7219Z" fill="#28003E"/>
<path d="M95.7437 24.328C102.578 22.2955 103.539 16.1242 103.539 16.1242C103.539 16.1242 98.3253 11.8071 93.9433 10.4766C100.728 14.3832 100.604 19.6429 96.7158 21.2678C93.4029 22.6352 90.178 17.1263 88.8945 14.7455C90.3601 18.9692 95.7407 24.3252 95.7407 24.3252L95.7437 24.328Z" fill="url(#paint30_radial_821_12172)"/>
<path opacity="0.25" d="M88.7865 12.1355C88.6631 11.9005 88.8834 14.3888 91.2712 17.8029C93.659 21.2169 96.3317 23.6911 96.3317 23.6911C96.3317 23.6911 97.9911 23.5779 99.4772 22.0152C99.4772 22.0011 93.9968 20.7668 88.7865 12.1326V12.1355Z" fill="url(#paint31_radial_821_12172)"/>
<path d="M94.8223 14.363L96.2467 18.1082C96.5052 17.9921 96.7255 17.8449 96.9281 17.6298C96.9281 17.6298 96.9575 17.6071 96.9604 17.5817L95.5536 14.2695C95.3098 14.2695 95.0602 14.295 94.8223 14.363Z" fill="#28003E"/>
<path d="M93.858 14.944C93.764 15.0516 93.6847 15.1479 93.6172 15.2611L94.7156 18.1712C95.0035 18.2816 95.3265 18.3156 95.6584 18.2703L94.1341 14.6836C94.0577 14.7685 93.9373 14.8478 93.861 14.944H93.858Z" fill="#28003E"/>
<defs>
<linearGradient id="paint0_linear_821_12172" x1="5.15743" y1="0.391362" x2="12.9105" y2="44.5658" gradientUnits="userSpaceOnUse">
<stop stop-color="#0BC3D1"/>
<stop offset="1" stop-color="#4783B5"/>
</linearGradient>
<radialGradient id="paint1_radial_821_12172" cx="0" cy="0" r="1" gradientUnits="userSpaceOnUse" gradientTransform="translate(39.3518 -5.09) rotate(90.4565) scale(30.4971 89.2503)">
<stop stop-color="#FF9764"/>
<stop offset="1" stop-color="#FF526D"/>
</radialGradient>
<linearGradient id="paint2_linear_821_12172" x1="26.36" y1="-3.06796" x2="34.1131" y2="41.1065" gradientUnits="userSpaceOnUse">
<stop stop-color="#0BC3D1"/>
<stop offset="1" stop-color="#4783B5"/>
</linearGradient>
<radialGradient id="paint3_radial_821_12172" cx="0" cy="0" r="1" gradientUnits="userSpaceOnUse" gradientTransform="translate(40.8381 -5.08999) rotate(90.4565) scale(30.4971 89.2503)">
<stop stop-color="#FF9764"/>
<stop offset="1" stop-color="#FF526D"/>
</radialGradient>
<linearGradient id="paint4_linear_821_12172" x1="45.7418" y1="-6.68935" x2="53.4949" y2="37.4823" gradientUnits="userSpaceOnUse">
<stop stop-color="#0BC3D1"/>
<stop offset="1" stop-color="#4783B5"/>
</linearGradient>
<radialGradient id="paint5_radial_821_12172" cx="0" cy="0" r="1" gradientUnits="userSpaceOnUse" gradientTransform="translate(41.9357 -5.56345) rotate(90.4565) scale(30.4971 89.2503)">
<stop stop-color="#FF9764"/>
<stop offset="1" stop-color="#FF526D"/>
</radialGradient>
<linearGradient id="paint6_linear_821_12172" x1="67.0972" y1="-9.86206" x2="74.8503" y2="34.3124" gradientUnits="userSpaceOnUse">
<stop stop-color="#0BC3D1"/>
<stop offset="1" stop-color="#4783B5"/>
</linearGradient>
<radialGradient id="paint7_radial_821_12172" cx="0" cy="0" r="1" gradientUnits="userSpaceOnUse" gradientTransform="translate(42.5704 -5.07017) rotate(90.4565) scale(30.4971 89.2503)">
<stop stop-color="#FF9764"/>
<stop offset="1" stop-color="#FF526D"/>
</radialGradient>
<linearGradient id="paint8_linear_821_12172" x1="22.8145" y1="41.0821" x2="39.0621" y2="41.0821" gradientUnits="userSpaceOnUse">
<stop stop-color="#0BC3D1"/>
<stop offset="1" stop-color="#4783B5"/>
</linearGradient>
<linearGradient id="paint9_linear_821_12172" x1="26.8352" y1="19.3636" x2="34.0223" y2="60.312" gradientUnits="userSpaceOnUse">
<stop stop-color="#0BC3D1"/>
<stop offset="1" stop-color="#4783B5"/>
</linearGradient>
<linearGradient id="paint10_linear_821_12172" x1="32.9992" y1="66.9047" x2="32.8224" y2="90.2587" gradientUnits="userSpaceOnUse">
<stop stop-color="#0BC3D1"/>
<stop offset="1" stop-color="#4783B5"/>
</linearGradient>
<linearGradient id="paint11_linear_821_12172" x1="48.9813" y1="25.3509" x2="55.9321" y2="66.2398" gradientUnits="userSpaceOnUse">
<stop stop-color="#0BC3D1"/>
<stop offset="1" stop-color="#4783B5"/>
</linearGradient>
<linearGradient id="paint12_linear_821_12172" x1="67.5787" y1="22.1888" x2="74.5295" y2="63.0777" gradientUnits="userSpaceOnUse">
<stop stop-color="#0BC3D1"/>
<stop offset="1" stop-color="#4783B5"/>
</linearGradient>
<linearGradient id="paint13_linear_821_12172" x1="75.5878" y1="7.19898" x2="118.483" y2="64.2698" gradientUnits="userSpaceOnUse">
<stop stop-color="#0BC3D1"/>
<stop offset="1" stop-color="#4783B5"/>
</linearGradient>
<linearGradient id="paint14_linear_821_12172" x1="125.427" y1="7.19898" x2="82.5312" y2="64.2698" gradientUnits="userSpaceOnUse">
<stop stop-color="#0BC3D1"/>
<stop offset="1" stop-color="#4783B5"/>
</linearGradient>
<radialGradient id="paint15_radial_821_12172" cx="0" cy="0" r="1" gradientUnits="userSpaceOnUse" gradientTransform="translate(12.809 30.5178) rotate(90.1867) scale(19.6302 23.5863)">
<stop stop-color="#FF9764"/>
<stop offset="1" stop-color="#FF526D"/>
</radialGradient>
<radialGradient id="paint16_radial_821_12172" cx="0" cy="0" r="1" gradientUnits="userSpaceOnUse" gradientTransform="translate(6.49043 32.5539) rotate(90.166) scale(3.44367 3.57281)">
<stop stop-color="#FFB700"/>
<stop offset="1" stop-color="#FF526D"/>
</radialGradient>
<radialGradient id="paint17_radial_821_12172" cx="0" cy="0" r="1" gradientUnits="userSpaceOnUse" gradientTransform="translate(15.8435 32.5882) rotate(90.166) scale(3.21386 3.33438)">
<stop stop-color="#FFB700"/>
<stop offset="1" stop-color="#FF526D"/>
</radialGradient>
<radialGradient id="paint18_radial_821_12172" cx="0" cy="0" r="1" gradientUnits="userSpaceOnUse" gradientTransform="translate(1.28204 40.7865) rotate(90.166) scale(4.13194 4.28689)">
<stop stop-color="#FFB700"/>
<stop offset="1" stop-color="#FF526D"/>
</radialGradient>
<radialGradient id="paint19_radial_821_12172" cx="0" cy="0" r="1" gradientUnits="userSpaceOnUse" gradientTransform="translate(103.704 18.1378) rotate(41.4214) scale(16.8729 24.9337)">
<stop offset="0.08" stop-color="#FFE245"/>
<stop offset="0.53" stop-color="#DE007B" stop-opacity="0.47"/>
<stop offset="1" stop-color="#E38427" stop-opacity="0"/>
</radialGradient>
<radialGradient id="paint20_radial_821_12172" cx="0" cy="0" r="1" gradientUnits="userSpaceOnUse" gradientTransform="translate(104.089 17.9914) rotate(41.4214) scale(16.8729 15.9981)">
<stop offset="0.08" stop-color="#FFE245"/>
<stop offset="0.53" stop-color="#DE007B" stop-opacity="0.47"/>
<stop offset="1" stop-color="#E38427" stop-opacity="0"/>
</radialGradient>
<radialGradient id="paint21_radial_821_12172" cx="0" cy="0" r="1" gradientUnits="userSpaceOnUse" gradientTransform="translate(104.877 19.0761) rotate(41.4214) scale(16.8729 6.63355)">
<stop offset="0.08" stop-color="#FFE245"/>
<stop offset="0.53" stop-color="#DE007B" stop-opacity="0.47"/>
<stop offset="1" stop-color="#E38427" stop-opacity="0"/>
</radialGradient>
<radialGradient id="paint22_radial_821_12172" cx="0" cy="0" r="1" gradientUnits="userSpaceOnUse" gradientTransform="translate(98.4293 25.6901) rotate(-173.965) scale(21.8482 21.0762)">
<stop stop-color="#B30058"/>
<stop offset="1" stop-color="#5C2D7D"/>
</radialGradient>
<radialGradient id="paint23_radial_821_12172" cx="0" cy="0" r="1" gradientUnits="userSpaceOnUse" gradientTransform="translate(93.3256 20.4691) rotate(-46.478) scale(8.94827 8.97132)">
<stop stop-color="#8EE1EE"/>
<stop offset="0.94" stop-color="#5E8DEC"/>
</radialGradient>
<radialGradient id="paint24_radial_821_12172" cx="0" cy="0" r="1" gradientUnits="userSpaceOnUse" gradientTransform="translate(96.0841 13.2861) rotate(-46.478) scale(17.0209 17.0648)">
<stop offset="0.08" stop-color="#FFE245"/>
<stop offset="1" stop-color="#E38427"/>
</radialGradient>
<radialGradient id="paint25_radial_821_12172" cx="0" cy="0" r="1" gradientUnits="userSpaceOnUse" gradientTransform="translate(95.5018 20.0108) rotate(-46.478) scale(7.79843 9.27014)">
<stop stop-color="#D1E1EE"/>
<stop offset="0.34" stop-color="#8EE1EE"/>
<stop offset="0.94" stop-color="#732FA4"/>
</radialGradient>
<radialGradient id="paint26_radial_821_12172" cx="0" cy="0" r="1" gradientUnits="userSpaceOnUse" gradientTransform="translate(92.2112 9.81955) rotate(-46.478) scale(5.12654 5.13975)">
<stop stop-color="#B30058"/>
<stop offset="1" stop-color="#5C2D7D"/>
</radialGradient>
<radialGradient id="paint27_radial_821_12172" cx="0" cy="0" r="1" gradientUnits="userSpaceOnUse" gradientTransform="translate(95.9427 13.6471) rotate(-46.478) scale(7.49111 7.51041)">
<stop stop-color="#B30058"/>
<stop offset="1" stop-color="#5C2D7D"/>
</radialGradient>
<radialGradient id="paint28_radial_821_12172" cx="0" cy="0" r="1" gradientUnits="userSpaceOnUse" gradientTransform="translate(95.706 13.3993) rotate(-46.478) scale(7.49111 7.51041)">
<stop stop-color="#D1E1EE"/>
<stop offset="0.34" stop-color="#8EE1EE"/>
<stop offset="0.94" stop-color="#732FA4"/>
</radialGradient>
<radialGradient id="paint29_radial_821_12172" cx="0" cy="0" r="1" gradientUnits="userSpaceOnUse" gradientTransform="translate(94.3851 16.6688) rotate(-46.478) scale(6.17437 6.19028)">
<stop stop-color="#D1E1EE"/>
<stop offset="0.34" stop-color="#8EE1EE"/>
<stop offset="0.94" stop-color="#732FA4"/>
</radialGradient>
<radialGradient id="paint30_radial_821_12172" cx="0" cy="0" r="1" gradientUnits="userSpaceOnUse" gradientTransform="translate(95.2859 12.8331) rotate(-46.478) scale(17.2991 17.3437)">
<stop offset="0.08" stop-color="#FFE245"/>
<stop offset="1" stop-color="#E38427"/>
</radialGradient>
<radialGradient id="paint31_radial_821_12172" cx="0" cy="0" r="1" gradientUnits="userSpaceOnUse" gradientTransform="translate(90.2793 17.3268) rotate(-46.478) scale(17.2514 17.2959)">
<stop stop-color="#8EE1EE"/>
<stop offset="0.94" stop-color="#5E8DEC"/>
</radialGradient>
</defs>
</svg>
