<svg width="14" height="15" viewBox="0 0 14 15" fill="none" xmlns="http://www.w3.org/2000/svg">
    <path d="M6.35768 14.6319C1.62793 8.81091 0.75 8.2135 0.75 6.0742C0.75 3.14383 3.54821 0.768311 7 0.768311C10.4518 0.768311 13.25 3.14383 13.25 6.0742C13.25 8.2135 12.3721 8.81091 7.64232 14.6319C7.33193 15.0125 6.66803 15.0125 6.35768 14.6319ZM7 8.28499C8.43825 8.28499 9.60416 7.29519 9.60416 6.0742C9.60416 4.85321 8.43825 3.86341 7 3.86341C5.56175 3.86341 4.39583 4.85321 4.39583 6.0742C4.39583 7.29519 5.56175 8.28499 7 8.28499Z" fill="white"/>
</svg>
