<svg width="21" height="13" viewBox="0 0 21 13" fill="none" xmlns="http://www.w3.org/2000/svg">
    <path d="M19.7203 4.51873C19.8663 4.42021 20.0834 4.51237 20.0834 4.66809V11.1671C20.0834 12.0093 19.2786 12.6926 18.2865 12.6926H2.71362C1.7216 12.6926 0.916748 12.0093 0.916748 11.1671V4.67127C0.916748 4.51237 1.13013 4.42339 1.27987 4.52191C2.11841 5.07488 3.23022 5.77722 7.04858 8.13212C7.83846 8.62154 9.17114 9.65121 10.5001 9.64485C11.8365 9.65439 13.1954 8.60247 13.9553 8.13212C17.7737 5.77722 18.8818 5.0717 19.7203 4.51873ZM10.5001 8.62471C11.3686 8.63743 12.6189 7.69674 13.2478 7.30902C18.2154 4.2486 18.5935 3.98164 19.739 3.21892C19.9561 3.07591 20.0834 2.85345 20.0834 2.61828V2.01446C20.0834 1.17229 19.2786 0.489014 18.2865 0.489014H2.71362C1.7216 0.489014 0.916748 1.17229 0.916748 2.01446V2.61828C0.916748 2.85345 1.04403 3.07273 1.26115 3.21892C2.40666 3.97847 2.78475 4.2486 7.75236 7.30902C8.38127 7.69674 9.63159 8.63743 10.5001 8.62471Z" fill="white"/>
</svg>
