<svg width="117" height="55" viewBox="0 0 117 55" fill="none" xmlns="http://www.w3.org/2000/svg">
<path d="M0 26.6067V0.525879H8.69361C10.9904 0.525879 12.8466 1.11916 14.2622 2.30866C15.6779 3.48641 16.3857 5.14876 16.3857 7.30161V8.32076C16.3857 9.89501 15.9951 11.2079 15.2138 12.2593C14.4443 13.3108 13.3752 14.0715 12.0036 14.5355L17.0465 26.6067H10.5439L5.84175 13.7719V26.6067H0ZM7.89474 5.39841H5.84175V12.0713H7.89474C9.65989 12.0713 10.5439 10.9788 10.5439 8.79362V8.31782C10.5439 7.28692 10.3178 6.54679 9.86548 6.09449C9.41318 5.63044 8.75529 5.39841 7.89474 5.39841Z" fill="white"/>
<path d="M0 26.6067V0.525879H8.69361C10.9904 0.525879 12.8466 1.11916 14.2622 2.30866C15.6779 3.48641 16.3857 5.14876 16.3857 7.30161V8.32076C16.3857 9.89501 15.9951 11.2079 15.2138 12.2593C14.4443 13.3108 13.3752 14.0715 12.0036 14.5355L17.0465 26.6067H10.5439L5.84175 13.7719V26.6067H0ZM7.89474 5.39841H5.84175V12.0713H7.89474C9.65989 12.0713 10.5439 10.9788 10.5439 8.79362V8.31782C10.5439 7.28692 10.3178 6.54679 9.86548 6.09449C9.41318 5.63044 8.75529 5.39841 7.89474 5.39841Z" fill="url(#paint0_linear_80_3866)"/>
<path d="M0 26.6067V0.525879H8.69361C10.9904 0.525879 12.8466 1.11916 14.2622 2.30866C15.6779 3.48641 16.3857 5.14876 16.3857 7.30161V8.32076C16.3857 9.89501 15.9951 11.2079 15.2138 12.2593C14.4443 13.3108 13.3752 14.0715 12.0036 14.5355L17.0465 26.6067H10.5439L5.84175 13.7719V26.6067H0ZM7.89474 5.39841H5.84175V12.0713H7.89474C9.65989 12.0713 10.5439 10.9788 10.5439 8.79362V8.31782C10.5439 7.28692 10.3178 6.54679 9.86548 6.09449C9.41318 5.63044 8.75529 5.39841 7.89474 5.39841Z" fill="url(#paint1_radial_80_3866)"/>
<path d="M21.5137 26.6067V0.525879H34.5188V5.56876H27.3554V10.782H33.8228V15.8249H27.3554V21.5638H34.5188V26.6067H21.5137Z" fill="white"/>
<path d="M21.5137 26.6067V0.525879H34.5188V5.56876H27.3554V10.782H33.8228V15.8249H27.3554V21.5638H34.5188V26.6067H21.5137Z" fill="url(#paint2_linear_80_3866)"/>
<path d="M21.5137 26.6067V0.525879H34.5188V5.56876H27.3554V10.782H33.8228V15.8249H27.3554V21.5638H34.5188V26.6067H21.5137Z" fill="url(#paint3_radial_80_3866)"/>
<path d="M42.3402 6.99601C42.3402 5.78595 42.5311 4.71981 42.9188 3.80345C43.3036 2.8871 43.8352 2.15578 44.5136 1.61243C45.2038 1.06908 45.9792 0.666706 46.8397 0.408247C47.712 0.135104 48.6666 0 49.7092 0C50.7519 0 51.7123 0.146852 52.5963 0.440555C53.4804 0.72251 54.2499 1.14838 54.9048 1.71523C55.5715 2.28207 56.0943 3.01046 56.4673 3.90625C56.8521 4.80204 57.0459 5.81826 57.0459 6.9637V8.88158H51.5801V7.0665C51.5801 6.28525 51.4156 5.69784 51.0867 5.30134C50.7577 4.90484 50.2996 4.70806 49.7122 4.70806C49.1806 4.70806 48.7459 4.87253 48.4052 5.20148C48.0645 5.53043 47.8971 5.98861 47.8971 6.57601C47.8971 6.98426 47.947 7.35139 48.0498 7.68034C48.1643 7.99753 48.3611 8.32061 48.6431 8.64662C48.9368 8.96382 49.2041 9.22228 49.442 9.42787C49.6916 9.63052 50.0822 9.93597 50.6138 10.3442L53.5009 12.5676C54.7345 13.4957 55.692 14.5266 56.3704 15.6573C57.0489 16.7881 57.3896 18.142 57.3896 19.7163C57.3896 21.2905 57.0371 22.6974 56.3381 23.8428C55.6479 24.9736 54.7374 25.8077 53.6037 26.3393C52.473 26.8709 51.1866 27.1382 49.7503 27.1382C47.5534 27.1382 45.7266 26.5214 44.2669 25.2878C42.819 24.0425 42.0935 22.3391 42.0935 20.1774V17.9188H47.6621V19.9395C47.6621 20.6973 47.8501 21.3023 48.2231 21.7546C48.6078 22.2069 49.1159 22.433 49.7503 22.433C50.3847 22.433 50.8987 22.2568 51.2629 21.9073C51.6242 21.5461 51.8063 21.0468 51.8063 20.4124C51.8063 19.9836 51.7505 19.6017 51.6359 19.2757C51.5331 18.9468 51.3305 18.6149 51.025 18.2742C50.7196 17.9335 50.4435 17.6633 50.1938 17.4577C49.9442 17.2433 49.5301 16.9085 48.9544 16.4562L46.1701 14.3327C44.9366 13.4046 43.9908 12.3678 43.3359 11.2253C42.678 10.0711 42.352 8.6613 42.352 6.99601H42.3402Z" fill="white"/>
<path d="M42.3402 6.99601C42.3402 5.78595 42.5311 4.71981 42.9188 3.80345C43.3036 2.8871 43.8352 2.15578 44.5136 1.61243C45.2038 1.06908 45.9792 0.666706 46.8397 0.408247C47.712 0.135104 48.6666 0 49.7092 0C50.7519 0 51.7123 0.146852 52.5963 0.440555C53.4804 0.72251 54.2499 1.14838 54.9048 1.71523C55.5715 2.28207 56.0943 3.01046 56.4673 3.90625C56.8521 4.80204 57.0459 5.81826 57.0459 6.9637V8.88158H51.5801V7.0665C51.5801 6.28525 51.4156 5.69784 51.0867 5.30134C50.7577 4.90484 50.2996 4.70806 49.7122 4.70806C49.1806 4.70806 48.7459 4.87253 48.4052 5.20148C48.0645 5.53043 47.8971 5.98861 47.8971 6.57601C47.8971 6.98426 47.947 7.35139 48.0498 7.68034C48.1643 7.99753 48.3611 8.32061 48.6431 8.64662C48.9368 8.96382 49.2041 9.22228 49.442 9.42787C49.6916 9.63052 50.0822 9.93597 50.6138 10.3442L53.5009 12.5676C54.7345 13.4957 55.692 14.5266 56.3704 15.6573C57.0489 16.7881 57.3896 18.142 57.3896 19.7163C57.3896 21.2905 57.0371 22.6974 56.3381 23.8428C55.6479 24.9736 54.7374 25.8077 53.6037 26.3393C52.473 26.8709 51.1866 27.1382 49.7503 27.1382C47.5534 27.1382 45.7266 26.5214 44.2669 25.2878C42.819 24.0425 42.0935 22.3391 42.0935 20.1774V17.9188H47.6621V19.9395C47.6621 20.6973 47.8501 21.3023 48.2231 21.7546C48.6078 22.2069 49.1159 22.433 49.7503 22.433C50.3847 22.433 50.8987 22.2568 51.2629 21.9073C51.6242 21.5461 51.8063 21.0468 51.8063 20.4124C51.8063 19.9836 51.7505 19.6017 51.6359 19.2757C51.5331 18.9468 51.3305 18.6149 51.025 18.2742C50.7196 17.9335 50.4435 17.6633 50.1938 17.4577C49.9442 17.2433 49.5301 16.9085 48.9544 16.4562L46.1701 14.3327C44.9366 13.4046 43.9908 12.3678 43.3359 11.2253C42.678 10.0711 42.352 8.6613 42.352 6.99601H42.3402Z" fill="url(#paint4_linear_80_3866)"/>
<path d="M42.3402 6.99601C42.3402 5.78595 42.5311 4.71981 42.9188 3.80345C43.3036 2.8871 43.8352 2.15578 44.5136 1.61243C45.2038 1.06908 45.9792 0.666706 46.8397 0.408247C47.712 0.135104 48.6666 0 49.7092 0C50.7519 0 51.7123 0.146852 52.5963 0.440555C53.4804 0.72251 54.2499 1.14838 54.9048 1.71523C55.5715 2.28207 56.0943 3.01046 56.4673 3.90625C56.8521 4.80204 57.0459 5.81826 57.0459 6.9637V8.88158H51.5801V7.0665C51.5801 6.28525 51.4156 5.69784 51.0867 5.30134C50.7577 4.90484 50.2996 4.70806 49.7122 4.70806C49.1806 4.70806 48.7459 4.87253 48.4052 5.20148C48.0645 5.53043 47.8971 5.98861 47.8971 6.57601C47.8971 6.98426 47.947 7.35139 48.0498 7.68034C48.1643 7.99753 48.3611 8.32061 48.6431 8.64662C48.9368 8.96382 49.2041 9.22228 49.442 9.42787C49.6916 9.63052 50.0822 9.93597 50.6138 10.3442L53.5009 12.5676C54.7345 13.4957 55.692 14.5266 56.3704 15.6573C57.0489 16.7881 57.3896 18.142 57.3896 19.7163C57.3896 21.2905 57.0371 22.6974 56.3381 23.8428C55.6479 24.9736 54.7374 25.8077 53.6037 26.3393C52.473 26.8709 51.1866 27.1382 49.7503 27.1382C47.5534 27.1382 45.7266 26.5214 44.2669 25.2878C42.819 24.0425 42.0935 22.3391 42.0935 20.1774V17.9188H47.6621V19.9395C47.6621 20.6973 47.8501 21.3023 48.2231 21.7546C48.6078 22.2069 49.1159 22.433 49.7503 22.433C50.3847 22.433 50.8987 22.2568 51.2629 21.9073C51.6242 21.5461 51.8063 21.0468 51.8063 20.4124C51.8063 19.9836 51.7505 19.6017 51.6359 19.2757C51.5331 18.9468 51.3305 18.6149 51.025 18.2742C50.7196 17.9335 50.4435 17.6633 50.1938 17.4577C49.9442 17.2433 49.5301 16.9085 48.9544 16.4562L46.1701 14.3327C44.9366 13.4046 43.9908 12.3678 43.3359 11.2253C42.678 10.0711 42.352 8.6613 42.352 6.99601H42.3402Z" fill="url(#paint5_radial_80_3866)"/>
<path d="M73.5961 26.6067V15.7573H68.3829V26.6067H62.4589V0.525879H68.3829V10.6792H73.5961V0.525879H79.5054V26.6067H73.5961Z" fill="white"/>
<path d="M73.5961 26.6067V15.7573H68.3829V26.6067H62.4589V0.525879H68.3829V10.6792H73.5961V0.525879H79.5054V26.6067H73.5961Z" fill="url(#paint6_linear_80_3866)"/>
<path d="M73.5961 26.6067V15.7573H68.3829V26.6067H62.4589V0.525879H68.3829V10.6792H73.5961V0.525879H79.5054V26.6067H73.5961Z" fill="url(#paint7_radial_80_3866)"/>
<path d="M33.4322 54.2321V44.208H28.4627V54.2321H22.8148V30.1396H28.4627V39.5205H33.4322V30.1396H39.0654V54.235H33.4322V54.2321Z" fill="url(#paint8_linear_80_3866)"/>
<path d="M33.4322 54.2321V44.208H28.4627V54.2321H22.8148V30.1396H28.4627V39.5205H33.4322V30.1396H39.0654V54.235H33.4322V54.2321Z" fill="url(#paint9_linear_80_3866)"/>
<path d="M33.4322 54.2321V44.208H28.4627V54.2321H22.8148V30.1396H28.4627V39.5205H33.4322V30.1396H39.0654V54.235H33.4322V54.2321Z" fill="url(#paint10_linear_80_3866)"/>
<path d="M43.5856 30.1396H49.0455V46.8455C49.0455 47.9968 49.2335 48.8221 49.6094 49.3243C49.9971 49.8148 50.561 50.0615 51.3041 50.0615C52.0472 50.0615 52.5905 49.8119 52.9664 49.3096C53.3541 48.8074 53.548 47.988 53.548 46.8484V30.1426H59.0079V46.6927C59.0079 49.3273 58.3324 51.3244 56.9843 52.6843C55.6362 54.0441 53.7418 54.7226 51.3041 54.7226C48.8664 54.7226 46.969 54.0412 45.6092 52.6843C44.2611 51.3244 43.5856 49.3273 43.5856 46.6927V30.1426V30.1396Z" fill="white"/>
<path d="M43.5856 30.1396H49.0455V46.8455C49.0455 47.9968 49.2335 48.8221 49.6094 49.3243C49.9971 49.8148 50.561 50.0615 51.3041 50.0615C52.0472 50.0615 52.5905 49.8119 52.9664 49.3096C53.3541 48.8074 53.548 47.988 53.548 46.8484V30.1426H59.0079V46.6927C59.0079 49.3273 58.3324 51.3244 56.9843 52.6843C55.6362 54.0441 53.7418 54.7226 51.3041 54.7226C48.8664 54.7226 46.969 54.0412 45.6092 52.6843C44.2611 51.3244 43.5856 49.3273 43.5856 46.6927V30.1426V30.1396Z" fill="url(#paint11_linear_80_3866)"/>
<path d="M64.2417 54.2321V30.1396H71.8339C73.9456 30.1396 75.6286 30.6624 76.8856 31.708C78.1397 32.7536 78.7683 34.2427 78.7683 36.1782V36.5071C78.7683 38.7569 77.7755 40.3282 75.7872 41.2299C76.9473 41.691 77.8578 42.3959 78.5157 43.3475C79.1736 44.2873 79.5025 45.4328 79.5025 46.7838V47.427C79.5025 49.5916 78.871 51.2716 77.6052 52.4611C76.3393 53.6418 74.6505 54.235 72.5388 54.235H64.2417V54.2321ZM71.317 34.6392H69.543V39.4559H71.317C72.0924 39.4559 72.6651 39.2621 73.044 38.8744C73.4317 38.4867 73.6255 37.8758 73.6255 37.0387V36.7245C73.6255 35.9931 73.4317 35.4645 73.044 35.1414C72.668 34.8066 72.0924 34.6392 71.317 34.6392ZM71.7399 43.9554H69.543V49.7267H71.7399C73.276 49.7267 74.0455 48.7869 74.0455 46.9042V46.59C74.0455 45.6589 73.8517 44.9893 73.464 44.581C73.0763 44.164 72.5006 43.9525 71.737 43.9525L71.7399 43.9554Z" fill="white"/>
<path d="M64.2417 54.2321V30.1396H71.8339C73.9456 30.1396 75.6286 30.6624 76.8856 31.708C78.1397 32.7536 78.7683 34.2427 78.7683 36.1782V36.5071C78.7683 38.7569 77.7755 40.3282 75.7872 41.2299C76.9473 41.691 77.8578 42.3959 78.5157 43.3475C79.1736 44.2873 79.5025 45.4328 79.5025 46.7838V47.427C79.5025 49.5916 78.871 51.2716 77.6052 52.4611C76.3393 53.6418 74.6505 54.235 72.5388 54.235H64.2417V54.2321ZM71.317 34.6392H69.543V39.4559H71.317C72.0924 39.4559 72.6651 39.2621 73.044 38.8744C73.4317 38.4867 73.6255 37.8758 73.6255 37.0387V36.7245C73.6255 35.9931 73.4317 35.4645 73.044 35.1414C72.668 34.8066 72.0924 34.6392 71.317 34.6392ZM71.7399 43.9554H69.543V49.7267H71.7399C73.276 49.7267 74.0455 48.7869 74.0455 46.9042V46.59C74.0455 45.6589 73.8517 44.9893 73.464 44.581C73.0763 44.164 72.5006 43.9525 71.737 43.9525L71.7399 43.9554Z" fill="url(#paint12_linear_80_3866)"/>
<path d="M100.95 54.7198C95.5575 54.7198 91.7394 53.216 89.0931 50.5492C86.5115 47.9206 84.993 43.8499 84.993 37.8378V3.83576C84.993 1.71816 86.6936 0 88.7936 0C90.8935 0 92.5941 1.71816 92.5941 3.83576V38.2254C92.5941 41.2271 93.0523 44.0496 94.5413 46.0526L94.5619 46.0791L94.5824 46.1055C96.1714 48.1409 98.4505 49.019 100.953 49.019" fill="url(#paint13_linear_80_3866)"/>
<path d="M100.069 49.0161C102.571 49.0161 104.85 48.1409 106.439 46.1026L106.46 46.0761L106.48 46.0497C107.969 44.0466 108.428 41.2242 108.428 38.2225V3.83576C108.428 1.71816 110.128 0 112.228 0C114.328 0 116.029 1.71816 116.029 3.83576V37.8378C116.029 43.8499 114.51 47.9206 111.929 50.5492C109.285 53.216 105.464 54.7198 100.072 54.7198" fill="url(#paint14_linear_80_3866)"/>
<path fill-rule="evenodd" clip-rule="evenodd" d="M17.49 45.427C17.49 44.2639 17.1874 43.1302 16.6206 42.1316C16.5736 42.0494 16.5589 41.9671 16.5619 41.9025C16.5648 41.8438 16.5854 41.8203 16.5942 41.8115L20.6267 37.7731C21.2171 37.1827 21.2171 36.2223 20.6267 35.632C20.0364 35.0416 19.0789 35.0416 18.4856 35.632L14.4325 39.6674C14.4325 39.6674 14.3973 39.6968 14.3415 39.6997C14.2769 39.7027 14.1946 39.688 14.1124 39.641C13.6307 39.3649 13.1138 39.1505 12.5792 39.0037C12.4882 38.9802 12.4177 38.9302 12.3766 38.8833C12.3384 38.8392 12.3355 38.8098 12.3355 38.7951V35.9168C12.3355 35.0827 11.66 34.4102 10.8288 34.4102C9.9976 34.4102 9.32208 35.0857 9.32208 35.9168V38.7951C9.32208 38.8098 9.31915 38.8392 9.28096 38.8833C9.23985 38.9302 9.16936 38.9802 9.07831 39.0037C8.54377 39.1505 8.02979 39.3649 7.54518 39.6381C7.46294 39.6851 7.3807 39.6997 7.31609 39.6968C7.25735 39.6939 7.23385 39.6733 7.22504 39.6645L3.1925 35.632C2.60216 35.0416 1.64469 35.0387 1.05434 35.629C0.458125 36.2194 0.458125 37.1827 1.05141 37.776L5.08101 41.8056C5.08101 41.8056 5.11038 41.8408 5.11332 41.8966C5.11919 41.9613 5.10157 42.0435 5.05751 42.1257C4.72563 42.7102 4.48186 43.3417 4.335 44.0025C4.10592 45.0481 4.13235 46.1318 4.41137 47.1627C4.69038 48.1936 5.21318 49.1452 5.93862 49.9324C6.66113 50.7195 7.56574 51.3186 8.5702 51.6828C9.57467 52.047 10.6526 52.1616 11.7128 52.0206C12.7731 51.8796 13.7834 51.486 14.6587 50.8693C15.5339 50.2554 16.2476 49.4389 16.741 48.4903C17.2315 47.5416 17.49 46.4902 17.49 45.424V45.427ZM10.8405 49.0424C11.3163 49.0424 11.7862 48.9514 12.2239 48.7693C12.6409 48.596 13.0227 48.3493 13.3488 48.035C13.3664 48.0145 13.3811 47.9969 13.4016 47.9792C13.9949 47.386 14.362 46.6076 14.4443 45.7735C14.5265 44.9394 14.318 44.1024 13.851 43.4033C13.384 42.7043 12.6938 42.1904 11.889 41.9466C11.0872 41.7028 10.2238 41.7439 9.45131 42.067C8.67593 42.3871 8.03566 42.9657 7.6421 43.7059C7.2456 44.446 7.11931 45.2977 7.28378 46.1201C7.44826 46.9425 7.89175 47.6826 8.5379 48.2142C9.18698 48.7458 9.9976 49.0366 10.8376 49.0366L10.8405 49.0424Z" fill="url(#paint15_radial_80_3866)"/>
<path d="M5.95627 32.7773L6.60242 33.6819L7.50702 34.3281L6.60242 34.9742L5.95627 35.8788L5.31012 34.9742L4.40552 34.3281L5.31012 33.6819L5.95627 32.7773Z" fill="url(#paint16_radial_80_3866)"/>
<path d="M15.9099 33.1357L16.5149 33.9787L17.3578 34.5837L16.5149 35.1887L15.9099 36.0317L15.3048 35.1887L14.4619 34.5837L15.3048 33.9787L15.9099 33.1357Z" fill="url(#paint17_radial_80_3866)"/>
<path d="M1.87379 41.8848L2.64916 42.9685L3.73293 43.7439L2.64916 44.5193L1.87379 45.603L1.09841 44.5193L0.0146484 43.7439L1.09841 42.9685L1.87379 41.8848Z" fill="url(#paint18_radial_80_3866)"/>
<path d="M108.532 33.0649L98.7164 26.5007C97.245 25.508 97.8471 22.7707 100.038 20.4122C102.232 18.0244 104.864 17.2402 105.936 18.6353L113.111 28.0544C114.183 29.4524 114.183 31.5494 113.131 32.7125C112.036 33.8991 109.977 34.0547 108.532 33.0649Z" fill="url(#paint19_radial_80_3866)"/>
<path d="M109.384 32.1367L100 25.1025C98.6167 24.051 98.6167 21.9422 100.009 20.4209C101.401 18.8995 103.477 18.7174 104.623 20.0567L112.306 28.9324C113.44 30.254 113.828 31.9311 113.149 32.6741C112.468 33.429 110.764 33.1881 109.384 32.1396V32.1367Z" fill="url(#paint20_radial_80_3866)"/>
<path d="M110.265 31.1592L101.333 23.6169C100 22.4891 99.3803 21.0734 99.9824 20.4331C100.558 19.787 102.027 20.2775 103.266 21.514L111.49 29.8081C112.703 31.0446 113.463 32.2987 113.184 32.5954C112.917 32.9214 111.587 32.2694 110.265 31.1592Z" fill="url(#paint21_radial_80_3866)"/>
<path d="M95.7296 23.9572C94.7398 24.5299 94.4138 28.0191 94.4138 28.0191C90.4165 24.5035 91.6853 20.2595 91.7763 20.1743C92.4548 19.4459 96.7164 23.4109 95.7296 23.9572ZM102.811 16.2534C103.278 15.2283 106.752 14.5763 106.752 14.5763C102.896 10.8992 98.7929 12.5586 98.7019 12.6438C98.0234 13.3721 102.347 17.2784 102.811 16.2534Z" fill="url(#paint22_radial_80_3866)"/>
<path opacity="0.25" d="M92.5458 20.8292C92.8072 20.559 93.5532 20.9408 94.3726 21.5605C93.3505 20.5913 92.1405 19.8189 91.8027 20.1772C91.7117 20.2624 90.4546 24.5357 94.4402 28.022L94.449 27.9427C91.3299 24.6062 92.4694 20.9203 92.5487 20.8321L92.5458 20.8292Z" fill="url(#paint23_radial_80_3866)"/>
<path d="M95.7736 24.7914C95.7736 24.7914 85.679 14.3179 89.3708 10.817C93.0627 7.31602 103.565 16.3092 103.565 16.3092C103.565 16.3092 102.608 22.6826 95.7736 24.7914Z" fill="url(#paint24_radial_80_3866)"/>
<path d="M101.935 16.2798C101.092 21.2375 96.8602 22.8294 95.5914 23.22C96.499 24.245 97.1627 24.9176 97.1627 24.9176C103.348 23.5137 103.733 17.7571 103.733 17.7571C103.733 17.7571 103.04 17.1227 101.935 16.2798Z" fill="url(#paint25_radial_80_3866)"/>
<path d="M92.2873 10.0327C92.1522 11.0107 91.6705 12.0475 90.898 12.9022C90.2783 13.5836 89.547 14.0594 88.8069 14.3472C88.8774 14.5851 88.9567 14.8406 89.0507 15.0962C90.0933 14.9111 91.1653 14.3208 92.0141 13.3927C92.8952 12.4411 93.374 11.3103 93.4621 10.2442C93.0245 10.1414 92.6515 10.0738 92.2873 10.0327Z" fill="url(#paint26_radial_80_3866)"/>
<path opacity="0.5" d="M95.9174 13.8069C94.3843 13.6394 93.0098 14.7408 92.8424 16.274C92.675 17.8071 93.7764 19.1816 95.3095 19.349C96.8426 19.5164 98.2171 18.4151 98.3846 16.8819C98.552 15.3488 97.4506 13.9743 95.9174 13.8069Z" fill="url(#paint27_radial_80_3866)"/>
<path d="M95.7119 13.6892C94.1788 13.5218 92.8042 14.6232 92.6368 16.1563C92.4694 17.6894 93.5708 19.0639 95.1039 19.2314C96.637 19.3988 98.0116 18.2974 98.179 16.7642C98.3464 15.2311 97.245 13.8566 95.7119 13.6892Z" fill="url(#paint28_radial_80_3866)"/>
<path d="M96.9396 14.7787C97.8677 15.6304 97.9382 17.093 97.0835 18.0476C96.2317 18.9757 94.7691 19.0462 93.8146 18.1915C92.8865 17.3398 92.816 15.8771 93.6707 14.9226C94.5518 13.971 96.0144 13.9005 96.9396 14.7787Z" fill="url(#paint29_radial_80_3866)"/>
<path d="M93.4151 15.8744C93.0921 16.97 93.7147 18.1125 94.8073 18.4355C95.8999 18.7586 97.0453 18.136 97.3684 17.0434C97.6915 15.9508 97.0688 14.8054 95.9762 14.4823C94.8837 14.1592 93.7382 14.7819 93.4151 15.8744Z" fill="#28003E"/>
<path d="M95.7442 24.803C102.579 22.6942 103.539 16.2915 103.539 16.2915C103.539 16.2915 98.3258 11.8125 93.9438 10.4321C100.728 14.4852 100.605 19.9422 96.7163 21.6281C93.4034 23.0467 90.1785 17.3312 88.895 14.8612C90.3606 19.2432 95.7412 24.8001 95.7412 24.8001L95.7442 24.803Z" fill="url(#paint30_radial_80_3866)"/>
<path opacity="0.25" d="M88.7863 12.1536C88.663 11.9098 88.8833 14.4915 91.2711 18.0336C93.6589 21.5756 96.3316 24.1426 96.3316 24.1426C96.3316 24.1426 97.991 24.0251 99.4771 22.4039C99.4771 22.3892 93.9966 21.1086 88.7863 12.1507V12.1536Z" fill="url(#paint31_radial_80_3866)"/>
<path d="M94.822 14.4646L96.2465 18.3503C96.5049 18.2299 96.7252 18.0771 96.9279 17.8539C96.9279 17.8539 96.9573 17.8304 96.9602 17.804L95.5533 14.3677C95.3096 14.3677 95.0599 14.3941 94.822 14.4646Z" fill="#28003E"/>
<path d="M93.8586 15.0671C93.7646 15.1787 93.6853 15.2785 93.6178 15.396L94.7162 18.4153C95.0041 18.5298 95.3271 18.5651 95.659 18.5181L94.1347 14.7969C94.0583 14.885 93.9379 14.9672 93.8616 15.0671H93.8586Z" fill="#28003E"/>
<defs>
<linearGradient id="paint0_linear_80_3866" x1="5.15743" y1="-0.105583" x2="13.4839" y2="45.621" gradientUnits="userSpaceOnUse">
<stop stop-color="#0BC3D1"/>
<stop offset="1" stop-color="#4783B5"/>
</linearGradient>
<radialGradient id="paint1_radial_80_3866" cx="0" cy="0" r="1" gradientUnits="userSpaceOnUse" gradientTransform="translate(39.3518 -5.79249) rotate(90.44) scale(31.6406 89.2505)">
<stop stop-color="#FF9764"/>
<stop offset="1" stop-color="#FF526D"/>
</radialGradient>
<linearGradient id="paint2_linear_80_3866" x1="24.8736" y1="-3.69463" x2="33.2001" y2="42.032" gradientUnits="userSpaceOnUse">
<stop stop-color="#0BC3D1"/>
<stop offset="1" stop-color="#4783B5"/>
</linearGradient>
<radialGradient id="paint3_radial_80_3866" cx="0" cy="0" r="1" gradientUnits="userSpaceOnUse" gradientTransform="translate(39.3518 -5.79249) rotate(90.44) scale(31.6406 89.2505)">
<stop stop-color="#FF9764"/>
<stop offset="1" stop-color="#FF526D"/>
</radialGradient>
<linearGradient id="paint4_linear_80_3866" x1="45.8353" y1="-6.9402" x2="54.1618" y2="38.7835" gradientUnits="userSpaceOnUse">
<stop stop-color="#0BC3D1"/>
<stop offset="1" stop-color="#4783B5"/>
</linearGradient>
<radialGradient id="paint5_radial_80_3866" cx="0" cy="0" r="1" gradientUnits="userSpaceOnUse" gradientTransform="translate(42.0293 -5.77208) rotate(90.44) scale(31.6406 89.2505)">
<stop stop-color="#FF9764"/>
<stop offset="1" stop-color="#FF526D"/>
</radialGradient>
<linearGradient id="paint6_linear_80_3866" x1="66.556" y1="-10.7435" x2="74.8825" y2="34.9831" gradientUnits="userSpaceOnUse">
<stop stop-color="#0BC3D1"/>
<stop offset="1" stop-color="#4783B5"/>
</linearGradient>
<radialGradient id="paint7_radial_80_3866" cx="0" cy="0" r="1" gradientUnits="userSpaceOnUse" gradientTransform="translate(42.0292 -5.77193) rotate(90.44) scale(31.6406 89.2505)">
<stop stop-color="#FF9764"/>
<stop offset="1" stop-color="#FF526D"/>
</radialGradient>
<linearGradient id="paint8_linear_80_3866" x1="22.8148" y1="42.1844" x2="39.0625" y2="42.1844" gradientUnits="userSpaceOnUse">
<stop stop-color="#0BC3D1"/>
<stop offset="1" stop-color="#4783B5"/>
</linearGradient>
<linearGradient id="paint9_linear_80_3866" x1="26.8356" y1="19.6515" x2="34.5541" y2="62.0387" gradientUnits="userSpaceOnUse">
<stop stop-color="#0BC3D1"/>
<stop offset="1" stop-color="#4783B5"/>
</linearGradient>
<linearGradient id="paint10_linear_80_3866" x1="32.9996" y1="68.9754" x2="32.8093" y2="93.205" gradientUnits="userSpaceOnUse">
<stop stop-color="#0BC3D1"/>
<stop offset="1" stop-color="#4783B5"/>
</linearGradient>
<linearGradient id="paint11_linear_80_3866" x1="48.9809" y1="25.8633" x2="56.4468" y2="68.1948" gradientUnits="userSpaceOnUse">
<stop stop-color="#0BC3D1"/>
<stop offset="1" stop-color="#4783B5"/>
</linearGradient>
<linearGradient id="paint12_linear_80_3866" x1="67.5782" y1="22.5827" x2="75.0441" y2="64.9141" gradientUnits="userSpaceOnUse">
<stop stop-color="#0BC3D1"/>
<stop offset="1" stop-color="#4783B5"/>
</linearGradient>
<linearGradient id="paint13_linear_80_3866" x1="75.5887" y1="7.03125" x2="120.522" y2="64.6528" gradientUnits="userSpaceOnUse">
<stop stop-color="#0BC3D1"/>
<stop offset="1" stop-color="#4783B5"/>
</linearGradient>
<linearGradient id="paint14_linear_80_3866" x1="125.427" y1="7.03125" x2="80.4935" y2="64.6528" gradientUnits="userSpaceOnUse">
<stop stop-color="#0BC3D1"/>
<stop offset="1" stop-color="#4783B5"/>
</linearGradient>
<radialGradient id="paint15_radial_80_3866" cx="0" cy="0" r="1" gradientUnits="userSpaceOnUse" gradientTransform="translate(12.8084 31.224) rotate(90.18) scale(20.3663 23.5863)">
<stop stop-color="#FF9764"/>
<stop offset="1" stop-color="#FF526D"/>
</radialGradient>
<radialGradient id="paint16_radial_80_3866" cx="0" cy="0" r="1" gradientUnits="userSpaceOnUse" gradientTransform="translate(6.48969 33.3368) rotate(90.16) scale(3.57281 3.57281)">
<stop stop-color="#FFB700"/>
<stop offset="1" stop-color="#FF526D"/>
</radialGradient>
<radialGradient id="paint17_radial_80_3866" cx="0" cy="0" r="1" gradientUnits="userSpaceOnUse" gradientTransform="translate(15.8426 33.3721) rotate(90.16) scale(3.33438 3.33438)">
<stop stop-color="#FFB700"/>
<stop offset="1" stop-color="#FF526D"/>
</radialGradient>
<radialGradient id="paint18_radial_80_3866" cx="0" cy="0" r="1" gradientUnits="userSpaceOnUse" gradientTransform="translate(1.28107 41.8781) rotate(90.16) scale(4.28689)">
<stop stop-color="#FFB700"/>
<stop offset="1" stop-color="#FF526D"/>
</radialGradient>
<radialGradient id="paint19_radial_80_3866" cx="0" cy="0" r="1" gradientUnits="userSpaceOnUse" gradientTransform="translate(103.704 18.3811) rotate(42.47) scale(17.1527 25.4467)">
<stop offset="0.08" stop-color="#FFE245"/>
<stop offset="0.53" stop-color="#DE007B" stop-opacity="0.47"/>
<stop offset="1" stop-color="#E38427" stop-opacity="0"/>
</radialGradient>
<radialGradient id="paint20_radial_80_3866" cx="0" cy="0" r="1" gradientUnits="userSpaceOnUse" gradientTransform="translate(104.09 18.2294) rotate(42.47) scale(17.1527 16.3272)">
<stop offset="0.08" stop-color="#FFE245"/>
<stop offset="0.53" stop-color="#DE007B" stop-opacity="0.47"/>
<stop offset="1" stop-color="#E38427" stop-opacity="0"/>
</radialGradient>
<radialGradient id="paint21_radial_80_3866" cx="0" cy="0" r="1" gradientUnits="userSpaceOnUse" gradientTransform="translate(104.876 19.3546) rotate(42.47) scale(17.1527 6.77003)">
<stop offset="0.08" stop-color="#FFE245"/>
<stop offset="0.53" stop-color="#DE007B" stop-opacity="0.47"/>
<stop offset="1" stop-color="#E38427" stop-opacity="0"/>
</radialGradient>
<radialGradient id="paint22_radial_80_3866" cx="0" cy="0" r="1" gradientUnits="userSpaceOnUse" gradientTransform="translate(98.4298 26.2164) rotate(-173.74) scale(21.8574 21.8574)">
<stop stop-color="#B30058"/>
<stop offset="1" stop-color="#5C2D7D"/>
</radialGradient>
<radialGradient id="paint23_radial_80_3866" cx="0" cy="0" r="1" gradientUnits="userSpaceOnUse" gradientTransform="translate(93.3265 20.7995) rotate(-47.53) scale(9.12624)">
<stop stop-color="#8EE1EE"/>
<stop offset="0.94" stop-color="#5E8DEC"/>
</radialGradient>
<radialGradient id="paint24_radial_80_3866" cx="0" cy="0" r="1" gradientUnits="userSpaceOnUse" gradientTransform="translate(96.0843 13.3472) rotate(-47.53) scale(17.3594)">
<stop offset="0.08" stop-color="#FFE245"/>
<stop offset="1" stop-color="#E38427"/>
</radialGradient>
<radialGradient id="paint25_radial_80_3866" cx="0" cy="0" r="1" gradientUnits="userSpaceOnUse" gradientTransform="translate(95.5014 20.3244) rotate(-47.53) scale(7.95354 9.43022)">
<stop stop-color="#D1E1EE"/>
<stop offset="0.34" stop-color="#8EE1EE"/>
<stop offset="0.94" stop-color="#732FA4"/>
</radialGradient>
<radialGradient id="paint26_radial_80_3866" cx="0" cy="0" r="1" gradientUnits="userSpaceOnUse" gradientTransform="translate(92.2114 9.75026) rotate(-47.53) scale(5.2285)">
<stop stop-color="#B30058"/>
<stop offset="1" stop-color="#5C2D7D"/>
</radialGradient>
<radialGradient id="paint27_radial_80_3866" cx="0" cy="0" r="1" gradientUnits="userSpaceOnUse" gradientTransform="translate(95.9421 13.7218) rotate(-47.53) scale(7.6401)">
<stop stop-color="#B30058"/>
<stop offset="1" stop-color="#5C2D7D"/>
</radialGradient>
<radialGradient id="paint28_radial_80_3866" cx="0" cy="0" r="1" gradientUnits="userSpaceOnUse" gradientTransform="translate(95.7068 13.4645) rotate(-47.53) scale(7.6401)">
<stop stop-color="#D1E1EE"/>
<stop offset="0.34" stop-color="#8EE1EE"/>
<stop offset="0.94" stop-color="#732FA4"/>
</radialGradient>
<radialGradient id="paint29_radial_80_3866" cx="0" cy="0" r="1" gradientUnits="userSpaceOnUse" gradientTransform="translate(94.3865 16.8571) rotate(-47.53) scale(6.29717)">
<stop stop-color="#D1E1EE"/>
<stop offset="0.34" stop-color="#8EE1EE"/>
<stop offset="0.94" stop-color="#732FA4"/>
</radialGradient>
<radialGradient id="paint30_radial_80_3866" cx="0" cy="0" r="1" gradientUnits="userSpaceOnUse" gradientTransform="translate(95.2864 12.877) rotate(-47.53) scale(17.6432 17.6432)">
<stop offset="0.08" stop-color="#FFE245"/>
<stop offset="1" stop-color="#E38427"/>
</radialGradient>
<radialGradient id="paint31_radial_80_3866" cx="0" cy="0" r="1" gradientUnits="userSpaceOnUse" gradientTransform="translate(90.2791 17.5397) rotate(-47.53) scale(17.5945)">
<stop stop-color="#8EE1EE"/>
<stop offset="0.94" stop-color="#5E8DEC"/>
</radialGradient>
</defs>
</svg>
