<svg width="15" height="13" viewBox="0 0 15 13" fill="none" xmlns="http://www.w3.org/2000/svg">
    <path d="M14.5722 8.71961L11.2909 7.59459C11.1507 7.5468 10.995 7.53673 10.847 7.5659C10.6991 7.59507 10.567 7.66189 10.4706 7.75632L9.01744 9.17665C6.73686 8.31643 4.90151 6.84816 3.82624 5.02369L5.60166 3.86117C5.71993 3.78422 5.80363 3.67854 5.84011 3.56012C5.87659 3.44171 5.86384 3.31701 5.80381 3.20491L4.39754 0.579862C4.33165 0.459018 4.21512 0.360353 4.06805 0.30088C3.92097 0.241407 3.75256 0.224854 3.59186 0.254075L0.544931 0.816585C0.389998 0.845207 0.251766 0.914996 0.152796 1.01456C0.0538267 1.11413 -3.56904e-05 1.23759 1.77431e-08 1.3648C1.77431e-08 7.37662 6.09093 12.24 13.594 12.24C13.753 12.2401 13.9074 12.197 14.032 12.1178C14.1565 12.0386 14.2438 11.928 14.2795 11.804L14.9827 9.3665C15.019 9.23732 14.9978 9.10205 14.9229 8.98398C14.848 8.86591 14.724 8.77243 14.5722 8.71961Z" fill="white"/>
</svg>
